<svg id="svg"  xmlns="http://www.w3.org/2000/svg" xmlns:xlink="http://www.w3.org/1999/xlink" width="400" height="432" viewBox="0, 0, 400,432"><g id="svgg"><path  id="path0" d="M1.500 106.676 C 0.720 106.880,0.563 107.806,1.238 108.223 C 1.478 108.372,1.595 108.916,1.496 109.433 C 1.397 109.949,1.426 110.423,1.560 110.486 C 1.694 110.549,2.243 111.860,2.780 113.400 C 3.712 116.073,6.114 120.576,6.852 121.032 C 7.043 121.150,7.200 121.597,7.200 122.024 C 7.200 122.451,7.390 122.800,7.623 122.800 C 8.222 122.800,13.548 128.006,13.817 128.855 C 13.940 129.242,14.283 129.466,14.579 129.353 C 14.875 129.239,15.363 129.497,15.663 129.925 C 15.963 130.354,16.567 130.782,17.004 130.876 C 17.442 130.970,17.749 131.279,17.687 131.561 C 17.626 131.844,17.806 131.992,18.087 131.892 C 18.781 131.643,20.080 132.348,19.790 132.815 C 19.663 133.022,19.838 133.084,20.179 132.953 C 20.521 132.822,20.800 132.914,20.800 133.157 C 20.800 133.401,21.070 133.600,21.400 133.600 C 21.730 133.600,22.000 133.799,22.000 134.043 C 22.000 134.286,22.255 134.388,22.567 134.268 C 22.879 134.148,23.237 134.321,23.364 134.651 C 23.491 134.981,23.776 135.139,23.997 135.002 C 24.219 134.865,24.400 134.963,24.400 135.219 C 24.400 135.476,24.670 135.582,25.000 135.455 C 25.330 135.329,25.600 135.399,25.600 135.613 C 25.600 135.826,25.960 136.000,26.400 136.000 C 26.840 136.000,27.200 136.161,27.200 136.357 C 27.200 136.554,27.479 136.822,27.821 136.953 C 28.177 137.089,28.337 137.022,28.197 136.795 C 28.063 136.578,28.143 136.400,28.376 136.400 C 28.609 136.400,28.800 136.580,28.800 136.800 C 28.800 137.020,28.935 137.179,29.100 137.153 C 29.936 137.021,30.417 137.249,30.164 137.658 C 29.965 137.981,30.195 138.038,30.940 137.851 C 31.567 137.693,32.000 137.751,32.000 137.992 C 32.000 138.217,32.450 138.400,33.000 138.400 C 33.550 138.400,34.000 138.555,34.000 138.745 C 34.000 138.934,34.450 139.003,35.000 138.898 C 35.584 138.786,36.000 138.893,36.000 139.153 C 36.000 139.399,36.540 139.600,37.200 139.600 C 37.860 139.600,38.400 139.800,38.400 140.043 C 38.400 140.321,38.788 140.389,39.438 140.226 C 40.014 140.082,40.716 140.164,41.014 140.412 C 41.310 140.657,41.878 140.825,42.276 140.783 C 43.850 140.619,44.840 140.812,44.581 141.231 C 44.396 141.529,44.882 141.577,46.161 141.385 C 47.382 141.202,48.202 141.270,48.583 141.586 C 48.899 141.848,49.932 142.032,50.879 141.994 C 55.046 141.828,60.636 142.115,58.800 142.400 L 57.000 142.680 59.324 142.740 C 60.785 142.778,61.555 142.652,61.400 142.400 C 61.252 142.160,61.763 141.999,62.676 141.997 C 63.514 141.996,65.443 141.877,66.963 141.733 C 70.051 141.442,70.465 142.121,67.498 142.610 C 66.564 142.764,65.584 143.065,65.319 143.278 C 65.055 143.492,64.447 143.542,63.969 143.390 C 63.381 143.204,63.188 143.258,63.374 143.557 C 63.546 143.836,63.277 144.000,62.647 144.000 C 62.097 144.000,61.551 144.156,61.433 144.346 C 61.315 144.537,60.765 144.606,60.210 144.500 C 59.618 144.387,59.200 144.492,59.200 144.753 C 59.200 144.999,58.750 145.200,58.200 145.200 C 57.650 145.200,57.200 145.392,57.200 145.627 C 57.200 145.872,56.859 145.946,56.399 145.800 C 55.917 145.647,55.354 145.788,54.987 146.156 C 54.652 146.491,54.112 146.664,53.788 146.540 C 53.465 146.416,53.200 146.493,53.200 146.712 C 53.200 147.059,52.501 147.281,49.993 147.729 C 49.659 147.789,49.180 147.965,48.929 148.120 C 48.678 148.276,48.186 148.293,47.836 148.159 C 47.486 148.024,47.200 148.114,47.200 148.357 C 47.200 148.601,46.761 148.800,46.224 148.800 C 45.687 148.800,45.151 148.956,45.033 149.146 C 44.915 149.337,44.338 149.401,43.750 149.288 C 43.011 149.147,42.768 149.225,42.964 149.542 C 43.148 149.839,42.896 150.000,42.247 150.000 C 41.697 150.000,41.125 150.197,40.977 150.438 C 40.828 150.678,40.286 150.795,39.773 150.697 C 39.241 150.595,38.756 150.737,38.645 151.028 C 38.532 151.322,38.099 151.446,37.624 151.322 C 37.149 151.198,36.800 151.299,36.800 151.561 C 36.800 151.842,36.430 151.922,35.828 151.771 C 34.511 151.441,34.815 152.657,36.761 155.509 C 37.552 156.670,38.481 158.110,38.824 158.709 C 39.460 159.820,47.953 168.540,48.500 168.643 C 48.665 168.674,48.980 168.722,49.200 168.750 C 49.420 168.778,49.600 169.070,49.600 169.400 C 49.600 169.730,49.780 170.023,50.000 170.050 C 50.220 170.078,50.625 170.131,50.900 170.168 C 51.175 170.206,51.355 170.453,51.300 170.718 C 51.202 171.188,51.683 171.362,52.705 171.229 C 52.983 171.192,53.313 171.430,53.438 171.756 C 53.564 172.082,53.921 172.252,54.233 172.132 C 54.545 172.012,54.800 172.114,54.800 172.357 C 54.800 172.601,55.081 172.800,55.424 172.800 C 55.778 172.800,55.929 172.991,55.774 173.243 C 55.589 173.541,55.778 173.597,56.350 173.416 C 56.873 173.250,57.200 173.319,57.200 173.597 C 57.200 173.844,57.381 173.935,57.603 173.798 C 57.824 173.661,58.113 173.829,58.245 174.172 C 58.409 174.601,58.781 174.720,59.442 174.554 C 60.046 174.402,60.400 174.487,60.400 174.784 C 60.400 175.072,60.710 175.156,61.202 174.999 C 61.738 174.829,62.085 174.956,62.248 175.382 C 62.435 175.867,62.815 175.958,63.846 175.765 C 64.681 175.608,65.200 175.671,65.200 175.928 C 65.200 176.439,76.335 176.430,76.651 175.918 C 76.767 175.730,77.478 175.691,78.231 175.832 C 79.122 175.999,79.600 175.934,79.600 175.645 C 79.600 175.400,80.050 175.200,80.600 175.200 C 81.150 175.200,81.603 174.975,81.606 174.700 C 81.610 174.365,81.709 174.341,81.906 174.628 C 82.249 175.127,84.011 174.787,84.124 174.200 C 84.166 173.980,84.425 173.825,84.700 173.856 C 84.975 173.886,85.200 173.739,85.200 173.529 C 85.200 173.318,85.552 173.258,85.983 173.395 C 86.508 173.561,86.922 173.394,87.238 172.888 C 87.562 172.369,88.038 172.184,88.755 172.297 C 89.579 172.428,89.673 172.373,89.200 172.037 C 88.682 171.670,88.696 171.611,89.300 171.606 C 89.685 171.603,90.000 171.408,90.000 171.173 C 90.000 170.926,90.342 170.855,90.810 171.003 C 91.256 171.145,91.571 171.112,91.510 170.930 C 91.450 170.749,91.503 170.600,91.629 170.600 C 91.754 170.600,92.172 170.285,92.557 169.900 C 92.942 169.515,93.525 169.200,93.852 169.200 C 94.179 169.200,94.339 169.025,94.207 168.812 C 94.075 168.598,94.425 168.309,94.984 168.168 C 95.543 168.028,96.000 167.774,96.000 167.605 C 96.000 167.435,96.990 166.549,98.200 165.635 C 99.410 164.722,100.400 164.123,100.400 164.306 C 100.400 164.920,97.353 167.619,97.011 167.308 C 96.824 167.139,96.812 167.242,96.983 167.537 C 97.282 168.056,94.259 171.600,93.517 171.600 C 93.064 171.600,91.824 172.963,91.667 173.633 C 91.514 174.286,87.565 178.687,87.071 178.755 C 86.642 178.814,85.400 180.060,85.400 180.432 C 85.400 180.591,84.815 181.364,84.100 182.150 C 82.585 183.815,82.533 184.000,83.576 184.000 C 84.003 184.000,84.472 184.192,84.617 184.427 C 84.762 184.662,85.448 184.824,86.140 184.787 C 88.705 184.649,89.654 184.789,89.361 185.262 C 89.151 185.602,89.668 185.655,91.314 185.462 C 92.670 185.302,93.650 185.357,93.800 185.599 C 93.936 185.820,95.307 186.000,96.847 186.000 C 98.387 186.000,99.561 186.140,99.455 186.311 C 99.349 186.482,102.831 186.617,107.193 186.611 C 111.554 186.605,115.040 186.465,114.938 186.300 C 114.836 186.135,115.473 186.000,116.353 186.000 C 117.233 186.000,118.073 185.805,118.220 185.568 C 118.367 185.330,118.918 185.243,119.444 185.375 C 119.983 185.511,120.400 185.438,120.400 185.208 C 120.400 184.983,120.665 184.800,120.988 184.800 C 121.311 184.800,122.211 184.443,122.988 184.007 C 123.765 183.571,124.400 183.313,124.400 183.435 C 124.400 183.557,124.696 183.361,125.058 182.999 C 125.549 182.508,125.792 182.464,126.014 182.823 C 126.221 183.158,126.388 183.067,126.560 182.525 C 126.697 182.096,127.391 181.318,128.104 180.796 C 128.871 180.234,129.173 180.127,128.843 180.533 C 128.368 181.118,128.368 181.185,128.843 180.992 C 129.150 180.868,129.746 180.294,130.168 179.717 C 130.635 179.080,130.713 178.803,130.368 179.011 C 129.884 179.303,129.881 179.254,130.345 178.681 C 130.645 178.311,131.078 178.125,131.307 178.266 C 131.548 178.415,131.604 178.330,131.440 178.064 C 131.283 177.811,131.648 176.959,132.250 176.170 C 132.852 175.381,133.762 173.895,134.273 172.868 L 135.202 171.000 134.969 172.951 C 134.696 175.237,134.445 176.000,133.967 176.000 C 133.776 176.000,133.728 176.540,133.860 177.200 C 134.019 177.997,133.940 178.400,133.623 178.400 C 133.340 178.400,133.242 178.703,133.382 179.144 C 133.716 180.197,133.209 181.451,132.739 180.734 C 132.529 180.413,132.491 180.880,132.645 181.900 C 132.831 183.127,132.764 183.600,132.404 183.600 C 132.096 183.600,131.990 183.919,132.126 184.439 C 132.397 185.474,132.050 186.478,131.533 186.158 C 131.297 186.013,131.253 186.476,131.419 187.361 C 131.596 188.304,131.538 188.800,131.249 188.800 C 131.007 188.800,130.836 189.115,130.868 189.500 C 131.004 191.119,130.809 191.834,130.405 191.200 C 130.144 190.791,130.099 191.108,130.263 192.200 C 130.590 194.368,130.743 194.466,133.107 194.018 C 134.240 193.803,136.344 193.737,137.783 193.871 C 139.624 194.043,140.400 193.980,140.400 193.658 C 140.400 193.370,141.209 193.200,142.576 193.200 C 143.773 193.200,144.860 193.026,144.992 192.813 C 145.123 192.600,145.764 192.533,146.416 192.663 C 147.167 192.813,147.600 192.735,147.600 192.450 C 147.600 192.203,148.140 192.000,148.800 192.000 C 149.460 192.000,150.000 191.817,150.000 191.592 C 150.000 191.357,150.423 191.291,151.000 191.436 C 151.616 191.590,152.000 191.517,152.000 191.243 C 152.000 191.000,152.360 190.800,152.800 190.800 C 153.240 190.800,153.600 190.608,153.600 190.373 C 153.600 190.128,153.941 190.054,154.400 190.200 C 154.877 190.351,155.200 190.272,155.200 190.003 C 155.200 189.756,155.381 189.665,155.603 189.802 C 155.824 189.939,156.106 189.789,156.229 189.470 C 156.761 188.082,159.600 191.059,159.600 193.004 C 159.600 193.295,159.754 193.593,159.942 193.667 C 160.259 193.791,164.400 200.259,164.400 200.632 C 164.400 200.724,164.715 201.142,165.100 201.560 C 165.485 201.977,166.250 202.966,166.800 203.756 C 167.350 204.546,168.467 205.944,169.283 206.862 C 170.099 207.780,170.673 208.683,170.558 208.868 C 170.443 209.054,170.631 209.314,170.975 209.446 C 171.750 209.743,177.184 215.306,177.993 216.630 C 178.319 217.163,178.734 217.600,178.916 217.600 C 179.098 217.600,179.108 217.375,178.939 217.100 C 178.769 216.825,179.199 217.050,179.895 217.600 C 180.590 218.150,181.275 218.928,181.416 219.329 C 181.557 219.730,181.900 219.971,182.178 219.864 C 182.456 219.757,183.115 220.068,183.642 220.556 C 184.169 221.043,184.915 221.561,185.300 221.708 C 185.685 221.855,186.000 222.161,186.000 222.387 C 186.000 222.614,186.183 222.800,186.406 222.800 C 186.629 222.800,187.830 223.375,189.075 224.077 C 191.621 225.514,191.378 226.091,188.760 224.826 C 187.826 224.375,186.981 224.086,186.883 224.184 C 186.785 224.282,186.442 224.099,186.120 223.777 C 185.799 223.456,185.370 223.295,185.168 223.420 C 184.965 223.545,184.800 223.449,184.800 223.206 C 184.800 222.963,184.575 222.792,184.300 222.826 C 183.477 222.926,182.000 222.336,182.000 221.907 C 182.000 221.687,181.640 221.601,181.200 221.716 C 180.760 221.831,180.400 221.762,180.400 221.563 C 180.400 221.363,180.130 221.200,179.800 221.200 C 179.470 221.200,179.200 221.026,179.200 220.813 C 179.200 220.599,178.930 220.529,178.600 220.655 C 178.270 220.782,178.000 220.686,178.000 220.443 C 178.000 220.199,177.730 220.000,177.400 220.000 C 177.070 220.000,176.800 219.826,176.800 219.613 C 176.800 219.399,176.530 219.329,176.200 219.455 C 175.870 219.582,175.600 219.486,175.600 219.243 C 175.600 218.999,175.349 218.800,175.043 218.800 C 174.736 218.800,174.378 218.519,174.246 218.175 C 174.114 217.831,173.839 217.652,173.635 217.778 C 173.431 217.904,173.017 217.759,172.714 217.456 C 171.780 216.523,170.427 216.265,170.156 216.970 C 170.024 217.314,169.800 217.524,169.658 217.437 C 169.516 217.350,169.379 217.831,169.354 218.505 C 169.329 219.180,169.017 219.945,168.660 220.205 C 168.304 220.466,168.124 220.791,168.260 220.927 C 168.663 221.330,167.547 223.614,167.086 223.329 C 166.828 223.170,166.758 223.315,166.907 223.702 C 167.119 224.256,166.527 225.954,164.150 231.600 C 163.826 232.370,163.413 233.276,163.231 233.613 C 163.050 233.950,162.775 234.805,162.619 235.513 C 162.464 236.221,162.171 236.800,161.968 236.800 C 161.766 236.800,161.600 237.080,161.600 237.422 C 161.600 237.965,161.262 238.840,159.603 242.600 C 159.409 243.040,159.125 243.850,158.971 244.400 C 158.818 244.950,158.581 245.490,158.446 245.600 C 158.311 245.710,157.717 247.150,157.127 248.800 C 155.303 253.902,151.964 261.793,151.570 261.934 C 151.364 262.008,151.285 262.214,151.395 262.392 C 151.573 262.681,151.030 264.324,150.003 266.600 C 149.805 267.040,149.062 268.840,148.352 270.600 C 147.643 272.360,146.945 273.890,146.801 274.000 C 146.658 274.110,146.304 275.060,146.016 276.110 C 145.727 277.161,145.335 278.117,145.145 278.234 C 144.955 278.351,144.800 278.716,144.800 279.046 C 144.800 279.619,143.596 282.637,142.786 284.095 C 142.574 284.477,142.400 285.246,142.400 285.805 L 142.400 286.821 151.800 286.738 C 156.970 286.691,161.200 286.507,161.200 286.327 C 161.200 286.147,161.909 286.000,162.776 286.000 C 163.643 286.000,164.473 285.805,164.620 285.568 C 164.767 285.330,165.318 285.243,165.844 285.375 C 166.383 285.511,166.800 285.438,166.800 285.208 C 166.800 284.983,167.149 284.800,167.576 284.800 C 168.003 284.800,168.472 284.608,168.617 284.373 C 168.762 284.138,169.133 284.042,169.440 284.160 C 169.748 284.278,170.000 284.201,170.000 283.987 C 170.000 283.774,170.270 283.600,170.600 283.600 C 170.930 283.600,171.200 283.401,171.200 283.157 C 171.200 282.914,171.470 282.818,171.800 282.945 C 172.130 283.071,172.400 283.001,172.400 282.787 C 172.400 282.574,172.655 282.400,172.967 282.400 C 173.278 282.400,173.597 282.210,173.674 281.978 C 173.751 281.746,174.091 281.516,174.430 281.466 C 174.768 281.416,175.556 280.902,176.181 280.323 C 176.806 279.744,177.560 279.363,177.858 279.478 C 178.167 279.596,178.400 279.425,178.400 279.080 C 178.400 278.747,179.300 277.665,180.400 276.676 C 181.500 275.687,182.400 274.753,182.400 274.601 C 182.400 273.925,184.104 272.017,184.492 272.257 C 184.746 272.414,184.808 272.337,184.643 272.069 C 184.488 271.819,184.820 270.939,185.381 270.114 C 185.963 269.257,186.400 268.890,186.400 269.258 C 186.400 269.612,186.128 270.128,185.795 270.404 C 185.381 270.748,185.315 271.057,185.587 271.384 C 185.848 271.698,185.849 272.331,185.592 273.228 C 185.376 273.980,185.200 275.271,185.200 276.097 C 185.200 276.924,185.035 277.600,184.834 277.600 C 184.444 277.600,184.386 289.257,184.774 289.600 C 184.898 289.710,185.530 290.860,186.178 292.156 C 186.826 293.452,187.951 295.224,188.678 296.094 C 189.405 296.964,190.000 297.929,190.000 298.238 C 190.000 298.547,190.178 298.800,190.395 298.800 C 190.849 298.800,193.573 301.637,193.589 302.127 C 193.595 302.307,194.185 303.036,194.900 303.748 C 196.795 305.634,199.000 308.433,199.000 308.951 C 199.000 309.631,200.924 310.627,201.118 310.047 C 201.249 309.653,202.539 308.036,206.089 303.818 C 206.467 303.368,207.502 302.214,208.389 301.253 C 209.275 300.292,210.000 299.377,210.000 299.220 C 210.000 299.062,210.593 298.318,211.318 297.567 C 213.271 295.542,215.497 291.994,215.814 290.400 C 215.967 289.630,216.267 288.783,216.481 288.517 C 216.716 288.225,216.771 286.169,216.620 283.317 C 216.483 280.723,216.351 277.745,216.326 276.700 C 216.301 275.655,216.128 274.800,215.940 274.800 C 215.753 274.800,215.600 274.197,215.600 273.460 C 215.600 272.723,215.404 271.556,215.164 270.868 C 214.472 268.885,214.988 268.442,215.941 270.200 C 217.655 273.362,217.664 273.374,221.374 277.165 C 222.899 278.724,224.305 280.000,224.497 280.000 C 224.690 280.000,224.736 280.180,224.600 280.400 C 224.464 280.620,224.651 280.800,225.015 280.800 C 225.663 280.800,227.962 282.217,228.445 282.915 C 228.579 283.109,228.800 283.269,228.936 283.269 C 229.805 283.272,230.752 283.754,230.545 284.088 C 230.395 284.332,230.628 284.382,231.150 284.216 C 231.673 284.050,232.000 284.119,232.000 284.397 C 232.000 284.644,232.169 284.743,232.376 284.615 C 232.583 284.487,232.983 284.629,233.264 284.931 C 233.546 285.232,234.076 285.401,234.443 285.305 C 234.810 285.209,235.231 285.326,235.378 285.565 C 235.526 285.804,236.177 286.000,236.824 286.000 C 237.471 286.000,238.000 286.167,238.000 286.372 C 238.000 286.577,238.855 286.756,239.900 286.770 C 240.945 286.784,245.985 286.899,251.100 287.025 C 259.376 287.229,260.400 287.185,260.400 286.627 C 260.400 286.282,260.241 286.000,260.047 286.000 C 259.852 286.000,259.582 285.685,259.446 285.300 C 259.311 284.915,259.086 284.350,258.948 284.044 C 258.790 283.697,258.864 283.592,259.144 283.765 C 259.431 283.943,259.503 283.813,259.346 283.404 C 259.211 283.053,259.006 282.861,258.890 282.977 C 258.554 283.313,257.549 281.109,257.773 280.526 C 257.884 280.237,257.820 280.000,257.631 280.000 C 257.303 280.000,256.750 278.819,255.196 274.800 C 254.813 273.810,253.487 270.519,252.250 267.487 C 251.012 264.454,250.000 261.709,250.000 261.387 C 250.000 261.064,249.836 260.800,249.635 260.800 C 249.434 260.800,249.149 260.080,249.000 259.200 C 248.851 258.320,248.574 257.600,248.383 257.600 C 248.192 257.600,247.918 256.970,247.774 256.200 C 247.629 255.430,247.365 254.800,247.187 254.800 C 247.009 254.800,246.742 254.248,246.594 253.573 C 246.446 252.898,246.073 251.863,245.765 251.273 C 245.457 250.683,245.204 249.885,245.202 249.500 C 245.201 249.115,245.040 248.800,244.843 248.800 C 244.647 248.800,244.372 248.305,244.231 247.700 C 244.090 247.095,243.628 245.880,243.204 245.000 C 242.780 244.120,241.246 240.430,239.794 236.800 C 238.342 233.170,236.880 229.602,236.545 228.872 C 236.210 228.142,236.029 227.302,236.143 227.005 C 236.256 226.709,236.091 226.367,235.775 226.246 C 235.459 226.124,235.194 225.794,235.186 225.513 C 235.179 225.231,234.825 224.280,234.400 223.400 C 233.975 222.520,233.621 221.496,233.614 221.124 C 233.606 220.752,233.443 220.350,233.252 220.232 C 233.061 220.114,232.490 218.888,231.985 217.508 C 231.480 216.129,231.039 214.958,231.007 214.907 C 230.815 214.606,228.400 215.860,228.400 216.260 C 228.400 216.527,227.860 217.130,227.200 217.600 C 226.540 218.070,226.000 218.328,226.000 218.173 C 226.000 218.019,225.626 218.368,225.168 218.950 C 224.710 219.532,224.169 219.904,223.965 219.778 C 223.761 219.652,223.488 219.825,223.359 220.163 C 223.230 220.500,222.511 220.997,221.762 221.268 C 221.013 221.539,220.400 221.884,220.400 222.034 C 220.400 222.373,218.790 222.911,218.060 222.817 C 217.763 222.778,217.638 222.939,217.783 223.173 C 217.934 223.417,217.729 223.600,217.304 223.600 C 216.895 223.600,216.364 223.796,216.125 224.035 C 215.812 224.348,215.612 224.344,215.412 224.019 C 215.087 223.493,220.278 218.572,221.070 218.655 C 221.357 218.685,221.497 218.558,221.382 218.372 C 221.268 218.186,222.890 216.273,224.987 214.120 C 227.084 211.968,228.800 210.105,228.800 209.981 C 228.800 209.858,229.430 209.069,230.200 208.228 C 230.970 207.387,231.600 206.609,231.600 206.498 C 231.600 206.324,232.510 205.200,234.999 202.300 C 235.330 201.915,235.600 201.503,235.600 201.384 C 235.600 201.140,237.268 198.708,237.646 198.400 C 237.781 198.290,238.473 197.165,239.184 195.900 C 239.922 194.587,240.658 193.712,240.900 193.862 C 241.144 194.012,241.206 193.934,241.047 193.677 C 240.588 192.934,242.703 189.200,243.583 189.200 C 244.006 189.200,244.466 189.383,244.604 189.607 C 244.742 189.830,245.023 189.909,245.228 189.783 C 245.432 189.656,245.600 189.738,245.600 189.964 C 245.600 190.190,245.852 190.278,246.160 190.160 C 246.467 190.042,246.838 190.138,246.983 190.373 C 247.128 190.608,247.597 190.800,248.024 190.800 C 248.451 190.800,248.800 190.963,248.800 191.163 C 248.800 191.362,249.140 191.436,249.555 191.328 C 249.970 191.219,250.431 191.326,250.578 191.565 C 250.726 191.804,251.366 192.000,252.000 192.000 C 252.634 192.000,253.273 192.195,253.420 192.432 C 253.567 192.670,254.107 192.760,254.619 192.631 C 255.132 192.502,255.663 192.578,255.799 192.799 C 255.936 193.019,256.937 193.200,258.024 193.200 C 259.111 193.200,260.000 193.356,260.000 193.546 C 260.000 193.736,261.935 193.902,264.300 193.914 C 266.665 193.927,268.960 193.997,269.400 194.069 C 270.102 194.184,270.187 194.004,270.095 192.600 C 269.885 189.417,269.796 188.800,269.544 188.800 C 269.403 188.800,269.188 188.215,269.065 187.500 C 268.584 184.682,267.783 181.374,267.462 180.877 C 267.277 180.590,267.235 179.915,267.370 179.377 C 267.510 178.820,267.440 178.400,267.208 178.400 C 266.983 178.400,266.800 177.896,266.800 177.280 C 266.800 176.664,266.638 175.989,266.441 175.780 C 266.243 175.571,265.961 174.410,265.814 173.200 L 265.547 171.000 266.965 173.707 C 267.745 175.197,268.747 176.806,269.191 177.283 C 269.636 177.760,270.000 178.387,270.000 178.675 C 270.000 178.964,270.360 179.560,270.800 180.000 C 271.700 180.900,272.194 181.055,271.759 180.300 C 271.530 179.903,272.995 181.016,273.997 182.000 C 274.444 182.440,279.433 184.811,279.900 184.806 C 280.175 184.803,280.400 184.983,280.400 185.208 C 280.400 185.443,280.823 185.509,281.400 185.364 C 282.016 185.210,282.400 185.283,282.400 185.557 C 282.400 185.816,283.156 186.000,284.224 186.000 C 285.227 186.000,285.964 186.135,285.862 186.300 C 285.760 186.465,289.259 186.610,293.637 186.622 C 298.015 186.635,301.372 186.503,301.098 186.329 C 300.801 186.140,301.246 185.992,302.200 185.962 C 303.080 185.934,304.520 185.840,305.400 185.752 C 306.280 185.665,308.050 185.603,309.334 185.614 C 310.858 185.628,311.579 185.490,311.411 185.217 C 311.246 184.951,311.814 184.800,312.983 184.800 C 313.989 184.800,315.514 184.581,316.371 184.314 L 317.930 183.827 316.665 182.230 C 315.969 181.351,315.400 180.522,315.400 180.388 C 315.400 180.028,314.111 178.801,313.729 178.796 C 313.424 178.793,308.400 173.436,308.400 173.114 C 308.400 173.035,306.600 171.120,304.400 168.859 C 300.398 164.747,299.076 162.802,301.900 165.181 C 304.994 167.787,305.277 168.000,305.647 168.000 C 305.855 168.000,306.129 168.270,306.255 168.600 C 306.382 168.930,306.747 169.200,307.066 169.200 C 307.386 169.200,307.537 169.378,307.403 169.595 C 307.263 169.822,307.423 169.889,307.779 169.753 C 308.121 169.622,308.400 169.714,308.400 169.957 C 308.400 170.201,308.625 170.355,308.900 170.300 C 309.175 170.245,309.348 170.447,309.284 170.749 C 309.208 171.108,309.391 171.212,309.813 171.050 C 310.518 170.780,311.736 171.727,311.281 172.191 C 311.126 172.349,311.360 172.442,311.800 172.397 C 312.976 172.278,314.429 172.830,314.145 173.288 C 313.995 173.532,314.228 173.582,314.750 173.416 C 315.254 173.256,315.600 173.320,315.600 173.573 C 315.600 173.808,315.960 174.000,316.400 174.000 C 316.840 174.000,317.200 174.159,317.200 174.353 C 317.200 174.903,318.739 175.171,318.949 174.658 C 319.078 174.342,319.147 174.356,319.168 174.700 C 319.186 174.975,319.650 175.200,320.200 175.200 C 320.750 175.200,321.200 175.400,321.200 175.645 C 321.200 175.936,321.682 175.999,322.600 175.826 C 323.437 175.669,324.000 175.724,324.000 175.961 C 324.000 176.207,326.211 176.352,329.800 176.341 C 333.358 176.330,335.600 176.170,335.600 175.927 C 335.600 175.685,336.230 175.636,337.212 175.802 C 338.454 176.012,338.799 175.951,338.712 175.537 C 338.639 175.187,338.913 175.044,339.500 175.125 C 339.995 175.194,340.400 175.047,340.400 174.798 C 340.400 174.538,340.719 174.447,341.153 174.585 C 341.640 174.740,341.994 174.594,342.156 174.170 C 342.300 173.795,342.660 173.614,343.003 173.746 C 343.332 173.872,343.600 173.788,343.600 173.560 C 343.600 173.320,343.957 173.259,344.450 173.416 C 345.022 173.597,345.211 173.541,345.026 173.243 C 344.871 172.991,345.022 172.800,345.376 172.800 C 345.719 172.800,346.000 172.608,346.000 172.373 C 346.000 172.126,346.342 172.055,346.810 172.203 C 347.366 172.380,347.586 172.294,347.510 171.930 C 347.450 171.639,347.670 171.376,348.000 171.346 C 348.330 171.317,348.825 171.272,349.100 171.246 C 349.375 171.221,349.555 170.983,349.500 170.718 C 349.445 170.453,349.625 170.206,349.900 170.168 C 350.175 170.131,350.580 170.078,350.800 170.050 C 351.020 170.023,351.155 169.775,351.100 169.500 C 351.045 169.225,351.342 168.999,351.760 168.998 C 352.179 168.997,352.629 168.708,352.760 168.355 C 352.892 168.003,353.810 167.011,354.800 166.150 C 359.018 162.484,365.600 154.275,365.600 152.681 C 365.600 152.343,365.825 151.960,366.100 151.829 C 366.375 151.699,366.015 151.679,365.300 151.786 C 364.544 151.899,364.000 151.806,364.000 151.565 C 364.000 151.337,363.685 151.182,363.300 151.221 C 362.017 151.351,361.550 151.204,361.826 150.757 C 362.012 150.458,361.819 150.404,361.231 150.590 C 360.753 150.742,360.119 150.665,359.823 150.419 C 359.527 150.173,359.130 150.000,358.942 150.033 C 358.131 150.179,357.571 149.970,357.796 149.606 C 357.947 149.362,357.576 149.305,356.820 149.456 C 356.038 149.612,355.600 149.538,355.600 149.250 C 355.600 149.003,355.150 148.800,354.600 148.800 C 354.050 148.800,353.600 148.608,353.600 148.373 C 353.600 148.134,353.262 148.053,352.834 148.189 C 352.412 148.323,351.952 148.245,351.810 148.016 C 351.669 147.787,351.113 147.600,350.576 147.600 C 350.039 147.600,349.600 147.445,349.600 147.255 C 349.600 147.066,349.150 146.997,348.600 147.102 C 347.998 147.217,347.600 147.109,347.600 146.829 C 347.600 146.574,347.375 146.394,347.100 146.430 C 346.027 146.569,345.163 146.384,345.364 146.058 C 345.481 145.870,345.152 145.797,344.635 145.895 C 344.117 145.994,343.572 145.878,343.423 145.638 C 343.275 145.397,342.703 145.200,342.153 145.200 C 341.504 145.200,341.252 145.039,341.436 144.742 C 341.632 144.425,341.389 144.347,340.650 144.488 C 340.062 144.601,339.485 144.537,339.367 144.346 C 339.249 144.156,338.703 144.000,338.153 144.000 C 337.503 144.000,337.252 143.839,337.436 143.542 C 337.635 143.220,337.410 143.161,336.684 143.343 C 336.115 143.486,335.548 143.439,335.424 143.239 C 335.300 143.039,334.299 142.751,333.200 142.600 C 330.095 142.173,330.694 141.437,333.900 141.739 C 335.385 141.880,337.320 141.998,338.200 142.003 C 339.381 142.010,339.643 142.114,339.200 142.400 C 338.779 142.672,339.375 142.788,341.200 142.788 C 343.025 142.788,343.621 142.672,343.200 142.400 C 342.616 142.022,346.020 141.825,350.259 141.991 C 351.172 142.026,352.040 141.859,352.189 141.618 C 352.364 141.334,353.173 141.275,354.490 141.450 C 355.973 141.646,356.444 141.595,356.237 141.260 C 355.952 140.798,356.815 140.632,358.700 140.784 C 359.195 140.824,359.600 140.644,359.600 140.384 C 359.600 140.060,360.041 139.994,361.000 140.174 C 361.875 140.338,362.400 140.279,362.400 140.018 C 362.400 139.788,362.940 139.600,363.600 139.600 C 364.260 139.600,364.800 139.400,364.800 139.157 C 364.800 138.883,365.184 138.810,365.800 138.964 C 366.377 139.109,366.800 139.043,366.800 138.808 C 366.800 138.583,367.250 138.400,367.800 138.400 C 368.350 138.400,368.800 138.208,368.800 137.973 C 368.800 137.728,369.141 137.654,369.600 137.800 C 370.059 137.946,370.400 137.872,370.400 137.627 C 370.400 137.392,370.760 137.200,371.200 137.200 C 371.640 137.200,372.000 137.020,372.000 136.800 C 372.000 136.580,372.349 136.400,372.776 136.400 C 373.203 136.400,373.666 136.217,373.804 135.993 C 373.942 135.770,374.210 135.683,374.400 135.800 C 374.590 135.917,374.853 135.838,374.985 135.624 C 375.117 135.410,375.490 135.336,375.813 135.460 C 376.136 135.584,376.400 135.486,376.400 135.243 C 376.400 134.999,376.670 134.800,377.000 134.800 C 377.330 134.800,377.600 134.626,377.600 134.413 C 377.600 134.199,377.870 134.129,378.200 134.255 C 378.530 134.382,378.800 134.286,378.800 134.043 C 378.800 133.799,379.070 133.600,379.400 133.600 C 379.730 133.600,380.000 133.401,380.000 133.157 C 380.000 132.914,380.279 132.822,380.621 132.953 C 380.962 133.084,381.137 133.022,381.010 132.815 C 380.882 132.609,381.143 132.245,381.589 132.006 C 382.035 131.767,382.400 131.708,382.400 131.875 C 382.400 132.042,382.675 131.785,383.011 131.306 C 383.364 130.801,383.870 130.529,384.211 130.660 C 384.579 130.801,384.800 130.645,384.800 130.243 C 384.800 129.632,385.226 129.434,386.270 129.563 C 386.528 129.595,386.847 129.282,386.979 128.868 C 387.260 127.980,392.528 122.800,393.149 122.800 C 393.383 122.800,393.475 122.541,393.354 122.224 C 393.229 121.898,393.494 121.423,393.967 121.128 C 394.425 120.842,394.800 120.377,394.800 120.096 C 394.800 119.814,395.289 118.823,395.887 117.892 C 396.484 116.961,396.994 116.110,397.020 116.000 C 397.046 115.890,397.290 115.260,397.562 114.600 C 397.835 113.940,398.268 112.725,398.526 111.900 C 398.784 111.075,399.125 110.400,399.285 110.400 C 399.444 110.400,399.467 110.118,399.334 109.773 C 399.202 109.428,399.334 108.696,399.628 108.147 C 400.082 107.299,400.075 107.092,399.582 106.780 C 398.763 106.262,396.896 106.311,396.715 106.854 C 396.625 107.124,395.719 107.289,394.482 107.261 C 393.337 107.236,392.400 107.393,392.400 107.611 C 392.400 107.857,391.544 107.906,390.138 107.741 C 388.473 107.545,387.951 107.597,388.161 107.938 C 388.467 108.432,387.579 108.584,385.300 108.427 C 384.510 108.372,384.000 108.525,384.000 108.815 C 384.000 109.161,383.384 109.215,381.755 109.012 C 380.179 108.815,379.590 108.861,379.779 109.166 C 380.064 109.628,379.118 109.779,376.900 109.627 C 376.119 109.573,375.600 109.725,375.600 110.008 C 375.600 110.347,374.899 110.405,373.100 110.216 C 371.314 110.029,370.771 110.073,371.200 110.371 C 371.867 110.834,370.947 110.994,368.540 110.831 C 367.847 110.785,367.155 110.949,367.002 111.197 C 366.817 111.496,365.960 111.563,364.462 111.396 C 362.823 111.214,362.365 111.261,362.800 111.566 C 363.467 112.035,362.555 112.194,360.140 112.031 C 359.447 111.985,358.772 112.122,358.640 112.335 C 358.507 112.550,357.283 112.649,355.900 112.556 C 354.139 112.438,353.636 112.500,354.200 112.766 C 355.119 113.200,354.086 113.407,351.876 113.231 C 351.257 113.182,350.504 113.348,350.201 113.599 C 349.843 113.896,348.989 113.957,347.768 113.774 C 346.407 113.570,345.964 113.618,346.167 113.946 C 346.464 114.427,345.567 114.581,343.340 114.431 C 342.647 114.385,341.957 114.546,341.807 114.789 C 341.627 115.081,340.689 115.148,339.066 114.986 C 337.275 114.807,336.764 114.856,337.200 115.164 C 337.879 115.643,337.176 115.798,335.076 115.631 C 334.457 115.582,333.699 115.752,333.390 116.009 C 333.027 116.309,332.237 116.375,331.164 116.194 C 329.965 115.991,329.409 116.061,329.173 116.444 C 328.965 116.781,328.182 116.947,327.040 116.897 C 326.047 116.854,325.122 117.003,324.982 117.229 C 324.828 117.478,324.021 117.532,322.920 117.367 C 321.598 117.169,321.022 117.241,320.778 117.636 C 320.556 117.995,319.768 118.146,318.422 118.088 C 317.133 118.032,316.400 118.164,316.400 118.452 C 316.400 118.746,315.907 118.825,314.992 118.676 C 314.171 118.543,313.025 118.681,312.244 119.007 C 311.445 119.341,310.320 119.472,309.453 119.331 C 308.585 119.190,308.000 119.258,308.000 119.500 C 308.000 119.933,304.088 120.472,301.300 120.423 C 300.365 120.406,299.600 120.553,299.600 120.748 C 299.600 121.142,295.554 121.670,292.900 121.623 C 291.965 121.606,291.200 121.759,291.200 121.963 C 291.200 122.167,290.435 122.334,289.500 122.336 C 288.565 122.337,287.318 122.523,286.728 122.749 C 286.139 122.974,285.014 123.055,284.228 122.927 C 283.380 122.789,282.800 122.859,282.800 123.100 C 282.800 123.533,278.888 124.072,276.100 124.023 C 275.165 124.006,274.400 124.177,274.400 124.403 C 274.400 124.628,273.905 124.779,273.300 124.738 C 272.695 124.697,271.750 124.817,271.200 125.006 C 270.650 125.195,269.795 125.303,269.300 125.246 C 268.805 125.189,268.400 125.336,268.400 125.571 C 268.400 125.807,267.950 126.000,267.400 126.000 C 266.850 126.000,266.400 126.192,266.400 126.427 C 266.400 126.672,266.059 126.746,265.600 126.600 C 265.123 126.449,264.800 126.528,264.800 126.797 C 264.800 127.044,264.635 127.145,264.432 127.020 C 264.230 126.895,263.781 127.076,263.435 127.422 C 263.089 127.768,262.625 127.939,262.403 127.802 C 262.181 127.665,262.000 127.743,262.000 127.976 C 262.000 128.209,261.730 128.400,261.400 128.400 C 261.070 128.400,260.800 128.599,260.800 128.843 C 260.800 129.086,260.530 129.182,260.200 129.055 C 259.870 128.929,259.600 128.999,259.600 129.213 C 259.600 129.426,259.345 129.600,259.033 129.600 C 258.722 129.600,258.407 129.735,258.333 129.900 C 258.145 130.323,255.615 132.067,255.060 132.156 C 254.807 132.197,252.980 133.886,251.000 135.909 C 249.020 137.933,247.181 139.591,246.913 139.594 C 246.644 139.597,246.514 139.831,246.622 140.114 C 246.731 140.397,246.500 140.989,246.110 141.431 C 245.262 142.390,244.523 143.639,242.524 147.494 L 241.023 150.388 240.321 148.602 C 239.935 147.619,239.736 146.512,239.878 146.142 C 240.047 145.699,239.981 145.564,239.685 145.747 C 239.417 145.913,238.962 145.495,238.561 144.713 C 238.191 143.991,237.772 143.310,237.630 143.200 C 237.489 143.090,237.010 142.527,236.567 141.949 C 236.124 141.371,234.927 140.175,233.905 139.291 C 232.884 138.408,232.136 137.597,232.243 137.490 C 232.350 137.383,231.979 137.181,231.419 137.040 C 230.858 136.900,230.400 136.608,230.400 136.392 C 230.400 136.177,230.143 136.000,229.829 136.000 C 229.514 136.000,229.019 135.762,228.729 135.471 C 228.123 134.866,228.107 134.858,226.900 134.542 C 226.405 134.413,226.000 134.148,226.000 133.953 C 226.000 133.759,225.865 133.636,225.700 133.679 C 225.121 133.832,223.600 133.142,223.600 132.726 C 223.600 132.496,223.240 132.401,222.800 132.516 C 222.360 132.631,222.000 132.562,222.000 132.363 C 222.000 132.163,221.550 132.000,221.000 132.000 C 220.450 132.000,220.000 131.799,220.000 131.553 C 220.000 131.304,219.647 131.199,219.200 131.316 C 218.761 131.431,218.300 131.362,218.177 131.162 C 218.054 130.963,217.423 130.800,216.776 130.800 C 216.129 130.800,215.600 130.598,215.600 130.350 C 215.600 130.065,215.167 129.987,214.416 130.137 C 213.764 130.267,213.123 130.200,212.992 129.987 C 212.860 129.774,211.953 129.600,210.976 129.600 C 209.999 129.600,209.200 129.452,209.200 129.272 C 209.200 129.092,205.150 128.940,200.200 128.936 C 195.250 128.932,191.200 129.062,191.200 129.225 C 191.200 129.519,188.036 129.993,185.900 130.019 C 185.295 130.026,184.800 130.205,184.800 130.416 C 184.800 130.627,184.271 130.800,183.624 130.800 C 182.977 130.800,182.331 130.987,182.190 131.216 C 182.048 131.445,181.588 131.523,181.166 131.389 C 180.738 131.253,180.400 131.334,180.400 131.573 C 180.400 131.808,180.040 132.000,179.600 132.000 C 179.160 132.000,178.800 132.192,178.800 132.427 C 178.800 132.672,178.459 132.746,178.000 132.600 C 177.541 132.454,177.200 132.528,177.200 132.773 C 177.200 133.008,176.930 133.200,176.600 133.200 C 176.270 133.200,176.000 133.344,176.000 133.520 C 176.000 133.695,175.332 134.081,174.515 134.376 C 173.698 134.672,172.783 135.160,172.482 135.460 C 172.182 135.761,171.790 135.917,171.612 135.807 C 171.433 135.697,170.984 136.069,170.614 136.635 C 170.244 137.200,169.729 137.592,169.470 137.507 C 168.911 137.321,166.499 139.698,166.684 140.252 C 166.754 140.463,166.465 141.009,166.041 141.464 C 165.158 142.411,163.600 145.662,163.600 146.554 C 163.600 146.884,163.420 147.264,163.200 147.400 C 162.980 147.536,162.800 148.211,162.800 148.900 C 162.800 150.326,161.639 149.348,161.613 147.900 C 161.606 147.515,161.445 147.200,161.256 147.200 C 161.066 147.200,160.481 146.352,159.956 145.315 C 159.430 144.279,158.685 143.075,158.300 142.640 C 157.915 142.205,157.376 141.344,157.103 140.725 C 156.829 140.106,156.499 139.600,156.369 139.600 C 156.240 139.600,155.530 138.848,154.792 137.930 C 154.054 137.011,153.709 136.407,154.025 136.587 C 154.341 136.768,153.794 136.124,152.809 135.158 C 151.825 134.191,150.894 133.440,150.741 133.490 C 150.588 133.539,149.889 133.044,149.189 132.390 C 148.488 131.735,147.761 131.200,147.572 131.200 C 147.383 131.200,147.033 130.835,146.794 130.389 C 146.555 129.943,146.203 129.674,146.012 129.792 C 145.821 129.911,145.355 129.698,144.976 129.319 C 144.597 128.940,144.046 128.595,143.752 128.552 C 143.457 128.509,142.928 128.185,142.576 127.833 C 142.224 127.481,141.782 127.287,141.595 127.403 C 141.408 127.518,141.140 127.427,141.000 127.200 C 140.860 126.973,140.577 126.891,140.372 127.017 C 140.168 127.144,140.000 127.042,140.000 126.790 C 140.000 126.539,139.777 126.408,139.504 126.499 C 139.231 126.590,138.775 126.432,138.492 126.149 C 138.209 125.866,137.683 125.747,137.323 125.885 C 136.860 126.063,136.761 125.987,136.984 125.625 C 137.216 125.250,137.084 125.183,136.484 125.373 C 136.035 125.516,135.552 125.445,135.410 125.216 C 135.269 124.987,134.623 124.800,133.976 124.800 C 133.329 124.800,132.800 124.633,132.800 124.428 C 132.800 124.224,132.215 124.047,131.500 124.036 C 128.803 123.993,125.600 123.512,125.600 123.150 C 125.600 122.944,124.745 122.796,123.700 122.822 C 121.140 122.886,117.596 122.440,116.529 121.920 C 116.050 121.687,115.159 121.591,114.549 121.708 C 113.939 121.824,112.987 121.747,112.432 121.536 C 111.878 121.325,110.563 121.146,109.512 121.138 C 108.460 121.130,107.600 120.951,107.600 120.741 C 107.600 120.531,106.745 120.379,105.700 120.403 C 103.086 120.463,99.577 120.031,98.529 119.520 C 98.050 119.287,97.150 119.193,96.529 119.311 C 95.908 119.430,94.830 119.289,94.132 118.997 C 93.392 118.688,92.185 118.559,91.232 118.686 C 90.102 118.838,89.600 118.757,89.600 118.422 C 89.600 118.118,89.044 117.965,88.100 118.008 C 85.440 118.131,84.737 118.025,85.033 117.547 C 85.236 117.218,84.695 117.171,83.056 117.376 C 81.447 117.577,80.800 117.524,80.800 117.193 C 80.800 116.899,80.176 116.761,79.100 116.818 C 76.519 116.954,75.919 116.854,76.236 116.342 C 76.444 116.005,75.865 115.957,74.060 116.161 C 72.338 116.356,71.600 116.305,71.600 115.989 C 71.600 115.723,70.986 115.567,70.100 115.608 C 67.233 115.741,66.535 115.634,67.200 115.164 C 67.636 114.856,67.125 114.807,65.334 114.986 C 63.711 115.148,62.773 115.081,62.593 114.789 C 62.443 114.546,61.753 114.385,61.060 114.431 C 58.823 114.582,57.935 114.428,58.236 113.942 C 58.444 113.605,57.865 113.557,56.060 113.761 C 54.327 113.957,53.600 113.905,53.600 113.585 C 53.600 113.311,53.006 113.167,52.100 113.222 C 49.401 113.384,48.519 113.245,49.200 112.764 C 49.635 112.456,49.114 112.408,47.300 112.590 C 45.554 112.764,44.800 112.703,44.800 112.385 C 44.800 112.111,44.206 111.967,43.300 112.022 C 40.596 112.184,39.719 112.045,40.400 111.561 C 40.839 111.249,40.335 111.195,38.519 111.359 C 37.102 111.487,35.935 111.419,35.800 111.200 C 35.669 110.988,34.651 110.836,33.538 110.861 C 32.284 110.889,31.393 110.712,31.198 110.396 C 30.971 110.029,30.309 109.962,28.841 110.157 C 27.449 110.342,26.800 110.286,26.800 109.983 C 26.800 109.724,26.175 109.568,25.300 109.608 C 22.620 109.732,21.936 109.627,22.239 109.138 C 22.449 108.798,21.932 108.745,20.286 108.938 C 18.954 109.095,17.950 109.042,17.805 108.808 C 17.672 108.592,16.651 108.436,15.538 108.461 C 14.359 108.487,13.390 108.308,13.219 108.031 C 13.016 107.703,12.287 107.641,10.863 107.829 C 9.369 108.028,8.800 107.970,8.800 107.621 C 8.800 107.318,8.242 107.165,7.300 107.208 C 4.499 107.338,3.735 107.230,4.400 106.800 C 5.034 106.390,2.936 106.301,1.500 106.676 M191.197 145.600 C 192.042 145.600,192.354 145.750,192.161 146.063 C 191.965 146.380,192.146 146.455,192.737 146.300 C 193.212 146.176,193.600 146.219,193.600 146.394 C 193.600 146.570,194.038 146.823,194.573 146.958 C 195.109 147.092,195.661 147.561,195.800 148.001 C 195.940 148.440,196.320 148.800,196.646 148.800 C 196.972 148.800,198.150 149.712,199.265 150.827 L 201.292 152.853 202.175 152.023 C 202.662 151.566,203.210 151.329,203.394 151.496 C 203.578 151.663,203.615 151.601,203.476 151.358 C 203.338 151.115,203.709 150.485,204.300 149.958 C 205.161 149.191,205.270 149.160,204.845 149.800 C 204.552 150.240,205.143 149.705,206.157 148.611 C 207.177 147.510,208.006 146.885,208.014 147.211 C 208.024 147.600,208.193 147.514,208.514 146.959 C 208.781 146.496,209.246 146.203,209.546 146.307 C 209.847 146.412,210.240 146.260,210.419 145.969 C 210.883 145.218,217.522 145.226,217.987 145.978 C 218.170 146.274,218.593 146.412,218.927 146.284 C 219.270 146.152,219.634 146.312,219.764 146.651 C 219.891 146.981,220.152 147.153,220.346 147.034 C 220.827 146.736,222.457 148.202,222.093 148.605 C 221.932 148.783,222.005 148.811,222.255 148.668 C 222.854 148.326,225.513 151.592,225.376 152.502 C 225.318 152.888,225.435 153.102,225.636 152.978 C 226.251 152.598,226.857 154.869,226.598 156.582 C 226.418 157.767,226.464 158.040,226.770 157.600 C 227.079 157.156,227.188 157.677,227.188 159.600 C 227.188 161.547,227.081 162.049,226.762 161.600 C 226.444 161.151,226.386 161.432,226.532 162.714 C 226.742 164.557,226.162 167.347,225.636 167.022 C 225.460 166.913,225.401 167.269,225.504 167.812 C 225.614 168.386,225.506 168.800,225.247 168.800 C 225.001 168.800,224.800 169.081,224.800 169.424 C 224.800 169.793,224.612 169.931,224.338 169.762 C 224.040 169.577,223.986 169.653,224.185 169.976 C 224.532 170.538,223.647 172.477,223.177 172.186 C 223.011 172.083,222.960 172.327,223.065 172.727 C 223.170 173.128,222.973 173.690,222.628 173.977 C 222.283 174.263,222.000 174.667,222.000 174.873 C 222.000 175.500,219.144 179.008,218.729 178.890 C 218.515 178.830,218.436 178.935,218.554 179.125 C 218.850 179.604,217.671 181.200,217.021 181.200 C 216.727 181.200,216.384 181.605,216.259 182.100 C 215.988 183.169,210.800 188.424,210.800 187.628 C 210.800 187.327,210.259 187.827,209.597 188.740 C 208.936 189.653,208.216 190.423,207.997 190.450 C 207.779 190.478,207.436 190.523,207.236 190.550 C 207.036 190.578,206.471 191.110,205.981 191.734 C 205.356 192.528,204.999 192.722,204.788 192.381 C 204.582 192.048,204.399 192.172,204.208 192.776 C 204.054 193.261,203.702 193.571,203.426 193.465 C 203.150 193.359,202.699 193.585,202.424 193.967 C 201.827 194.796,200.468 194.779,199.846 193.935 C 199.601 193.602,199.190 193.400,198.934 193.487 C 198.678 193.573,198.353 193.283,198.213 192.842 C 198.074 192.402,197.743 192.119,197.480 192.215 C 197.216 192.310,196.282 191.761,195.404 190.994 C 194.527 190.227,193.672 189.600,193.504 189.600 C 193.337 189.600,193.200 189.370,193.200 189.089 C 193.200 188.532,191.811 187.200,191.231 187.200 C 190.690 187.200,186.800 183.116,186.800 182.548 C 186.800 182.276,186.485 181.948,186.100 181.819 C 185.715 181.690,184.680 180.592,183.800 179.378 C 182.920 178.164,182.011 176.952,181.780 176.685 C 180.761 175.508,178.400 171.321,178.400 170.692 C 178.400 170.311,178.264 170.000,178.098 170.000 C 177.689 170.000,176.879 168.110,176.553 166.397 C 176.407 165.629,176.117 164.782,175.908 164.516 C 175.700 164.250,175.649 163.485,175.796 162.816 C 175.965 162.047,175.905 161.600,175.632 161.600 C 175.380 161.600,175.200 160.765,175.200 159.600 C 175.200 158.400,175.378 157.600,175.645 157.600 C 175.934 157.600,175.999 157.122,175.832 156.231 C 175.691 155.478,175.738 154.762,175.936 154.640 C 176.134 154.517,176.399 153.903,176.525 153.276 C 176.650 152.648,177.286 151.565,177.937 150.867 C 178.588 150.170,179.021 149.600,178.898 149.600 C 178.776 149.600,179.003 149.239,179.402 148.798 C 179.802 148.356,180.218 148.085,180.328 148.195 C 180.438 148.305,180.780 148.036,181.087 147.597 C 181.394 147.159,181.905 146.800,182.223 146.800 C 182.540 146.800,182.800 146.637,182.800 146.437 C 182.800 146.238,183.160 146.169,183.600 146.284 C 184.047 146.401,184.400 146.296,184.400 146.047 C 184.400 145.801,184.985 145.587,185.700 145.572 C 186.415 145.556,187.360 145.399,187.800 145.222 C 188.240 145.045,188.903 145.058,189.274 145.250 C 189.644 145.443,190.510 145.600,191.197 145.600 M180.400 156.767 C 180.400 158.289,180.279 159.849,180.132 160.233 C 179.948 160.711,180.012 160.839,180.335 160.640 C 180.819 160.341,181.667 161.927,181.329 162.500 C 181.232 162.665,181.405 162.800,181.712 162.800 C 182.020 162.800,182.477 163.250,182.727 163.800 C 182.994 164.387,183.517 164.800,183.991 164.800 C 184.436 164.800,184.800 164.959,184.800 165.153 C 184.800 165.545,186.318 166.121,187.100 166.026 C 187.375 165.992,187.600 166.166,187.600 166.411 C 187.600 166.656,188.005 166.824,188.500 166.784 C 190.217 166.645,190.853 166.791,190.564 167.258 C 190.367 167.577,190.622 167.651,191.404 167.501 C 192.626 167.268,193.243 167.710,194.766 169.914 C 195.266 170.637,195.574 171.492,195.450 171.814 C 195.326 172.136,195.399 172.400,195.613 172.400 C 195.826 172.400,196.000 172.749,196.000 173.176 C 196.000 173.603,196.156 174.049,196.347 174.168 C 196.539 174.286,196.836 175.151,197.008 176.091 C 197.415 178.309,197.363 178.122,197.744 178.723 C 197.926 179.010,197.965 179.685,197.830 180.223 C 197.690 180.780,197.760 181.200,197.992 181.200 C 198.217 181.200,198.400 182.046,198.400 183.080 C 198.400 184.175,198.546 184.801,198.749 184.580 C 199.200 184.090,199.670 174.310,199.230 174.582 C 198.808 174.842,198.345 172.609,198.654 171.804 C 198.783 171.467,198.668 171.200,198.393 171.200 C 198.059 171.200,197.977 170.814,198.140 170.000 C 198.272 169.340,198.226 168.800,198.039 168.800 C 197.541 168.800,196.677 166.523,196.985 166.024 C 197.129 165.791,197.054 165.600,196.817 165.600 C 196.581 165.600,196.075 164.925,195.694 164.100 C 195.312 163.275,194.775 162.362,194.500 162.071 C 194.028 161.573,193.845 160.981,193.953 160.300 C 193.979 160.135,193.722 160.000,193.381 160.000 C 193.041 160.000,192.456 159.463,192.081 158.807 C 191.707 158.151,191.220 157.632,191.000 157.654 C 190.006 157.755,189.600 157.553,189.600 156.957 C 189.600 156.550,189.380 156.399,189.000 156.545 C 188.670 156.671,188.400 156.601,188.400 156.387 C 188.400 156.174,188.119 156.000,187.776 156.000 C 187.410 156.000,187.269 155.811,187.436 155.542 C 187.635 155.219,187.405 155.162,186.660 155.349 C 186.003 155.514,185.600 155.451,185.600 155.182 C 185.600 154.944,185.285 154.782,184.900 154.821 C 183.518 154.962,182.757 154.793,183.000 154.400 C 183.147 154.162,182.671 154.000,181.824 154.000 L 180.400 154.000 180.400 156.767 M219.512 154.463 C 219.427 154.718,218.782 154.910,218.079 154.890 C 217.376 154.870,216.800 155.034,216.800 155.254 C 216.800 155.480,216.430 155.536,215.950 155.384 C 215.378 155.203,215.189 155.259,215.374 155.557 C 215.529 155.809,215.378 156.000,215.024 156.000 C 214.681 156.000,214.400 156.199,214.400 156.443 C 214.400 156.686,214.162 156.794,213.871 156.683 C 213.581 156.571,213.120 156.837,212.847 157.273 C 212.559 157.734,212.101 157.971,211.755 157.838 C 211.418 157.709,211.265 157.781,211.403 158.005 C 211.537 158.222,211.407 158.400,211.113 158.400 C 210.520 158.400,209.066 159.931,208.951 160.676 C 208.911 160.937,208.445 161.747,207.915 162.476 C 207.385 163.204,206.603 164.563,206.176 165.495 C 205.749 166.428,205.271 167.193,205.113 167.195 C 204.954 167.198,204.925 167.461,205.048 167.781 C 205.171 168.100,205.124 168.595,204.946 168.881 C 204.767 169.166,204.559 169.847,204.484 170.393 C 204.409 170.938,204.225 171.478,204.074 171.593 C 203.769 171.823,203.680 172.719,203.363 178.762 C 203.243 181.051,203.250 183.346,203.380 183.862 C 203.772 185.425,204.339 184.912,204.109 183.200 C 203.987 182.290,204.061 181.600,204.281 181.600 C 204.493 181.600,204.667 181.044,204.667 180.365 C 204.667 179.685,204.883 178.996,205.147 178.833 C 205.411 178.670,205.515 178.243,205.377 177.885 C 205.068 177.079,205.911 174.400,206.474 174.400 C 206.700 174.400,206.771 174.101,206.630 173.735 C 206.362 173.036,207.583 169.604,208.100 169.601 C 208.265 169.601,208.400 169.370,208.400 169.089 C 208.400 168.252,209.873 167.242,210.756 167.473 C 211.223 167.595,211.846 167.411,212.215 167.043 C 212.630 166.627,213.202 166.486,213.829 166.643 C 214.461 166.802,214.800 166.716,214.800 166.397 C 214.800 166.104,215.122 165.991,215.600 166.116 C 216.040 166.231,216.400 166.162,216.400 165.963 C 216.400 165.763,216.760 165.600,217.200 165.600 C 217.640 165.600,218.000 165.390,218.000 165.133 C 218.000 164.877,218.096 164.763,218.213 164.880 C 219.574 166.240,222.605 159.334,222.150 155.909 C 221.899 154.016,220.007 152.979,219.512 154.463 M176.293 233.200 C 176.670 233.640,177.253 233.994,177.589 233.987 C 178.386 233.971,179.663 232.996,179.327 232.660 C 179.184 232.517,179.467 232.400,179.957 232.400 C 180.528 232.400,180.745 232.566,180.562 232.862 C 180.380 233.156,180.453 233.215,180.763 233.023 C 181.039 232.852,181.602 233.040,182.061 233.456 C 182.792 234.117,182.918 234.127,183.336 233.560 C 183.591 233.213,184.050 233.014,184.356 233.117 C 184.693 233.230,184.802 233.126,184.632 232.852 C 184.459 232.572,184.666 232.400,185.176 232.400 C 185.629 232.400,186.000 232.591,186.000 232.824 C 186.000 233.057,186.168 233.143,186.374 233.016 C 186.836 232.730,188.800 235.238,188.800 236.114 C 188.800 236.465,188.981 236.864,189.201 237.001 C 189.422 237.137,189.493 237.688,189.358 238.225 C 189.209 238.819,189.286 239.200,189.557 239.200 C 189.839 239.200,190.000 240.225,190.000 242.027 L 190.000 244.854 188.847 244.034 C 188.001 243.431,187.447 242.440,186.763 240.306 C 186.251 238.708,185.579 236.995,185.270 236.500 C 184.710 235.604,183.200 235.239,183.200 236.000 C 183.200 236.220,183.400 236.400,183.645 236.400 C 183.911 236.400,184.021 236.876,183.918 237.579 C 183.823 238.227,183.892 238.667,184.072 238.555 C 184.253 238.444,184.425 238.678,184.455 239.076 C 184.544 240.255,184.606 244.799,184.533 244.800 C 183.465 244.805,181.215 241.273,181.204 239.575 C 181.197 238.504,179.609 235.600,179.030 235.600 C 178.660 235.600,178.492 236.058,178.519 237.000 C 178.541 237.770,178.683 238.400,178.836 238.400 C 178.988 238.400,179.087 239.840,179.056 241.599 C 178.975 246.223,177.535 245.319,175.829 239.572 C 175.031 236.885,174.185 235.600,173.214 235.600 C 172.792 235.600,172.338 235.424,172.205 235.208 C 171.856 234.643,172.724 233.200,173.414 233.200 C 173.736 233.200,174.000 233.020,174.000 232.800 C 174.000 232.096,175.584 232.372,176.293 233.200 M216.000 232.833 C 216.000 233.072,216.225 233.191,216.500 233.098 C 216.775 233.006,217.209 233.213,217.464 233.560 C 217.882 234.127,218.008 234.117,218.739 233.456 C 219.198 233.040,219.761 232.852,220.037 233.023 C 220.347 233.215,220.420 233.156,220.238 232.862 C 220.055 232.566,220.272 232.400,220.843 232.400 C 221.333 232.400,221.616 232.517,221.473 232.660 C 221.115 233.018,222.438 233.972,223.313 233.987 C 223.704 233.994,224.133 233.720,224.264 233.377 C 224.396 233.034,224.759 232.852,225.072 232.972 C 225.388 233.093,225.533 233.014,225.397 232.795 C 225.263 232.578,225.523 232.400,225.976 232.400 C 226.429 232.400,226.800 232.580,226.800 232.800 C 226.800 233.020,227.027 233.200,227.304 233.200 C 227.943 233.200,228.905 234.707,228.590 235.216 C 228.460 235.427,228.031 235.600,227.638 235.600 C 226.654 235.600,225.661 236.797,225.348 238.361 C 225.204 239.080,224.836 239.765,224.531 239.882 C 224.202 240.008,224.071 240.394,224.210 240.831 C 224.509 241.773,222.786 244.844,222.035 244.705 C 221.390 244.585,221.373 239.385,222.011 237.163 C 222.660 234.900,221.464 234.452,220.569 236.622 C 220.166 237.600,219.738 238.401,219.618 238.401 C 219.498 238.402,219.385 239.057,219.368 239.857 C 219.348 240.724,219.065 241.509,218.668 241.800 C 218.300 242.069,218.000 242.667,218.000 243.130 C 218.000 243.804,216.997 244.800,216.318 244.800 C 216.071 244.800,216.279 239.018,216.573 237.700 C 216.733 236.985,217.029 236.400,217.232 236.400 C 217.434 236.400,217.600 236.220,217.600 236.000 C 217.600 235.780,217.182 235.600,216.671 235.600 C 215.726 235.600,214.000 238.526,214.000 240.128 C 214.000 240.498,213.837 240.800,213.637 240.800 C 213.438 240.800,213.360 241.127,213.465 241.526 C 213.585 241.988,213.172 242.725,212.327 243.552 L 211.000 244.852 210.880 242.133 C 210.809 240.545,210.928 239.357,211.164 239.279 C 211.389 239.204,211.464 238.622,211.334 237.972 C 211.186 237.232,211.266 236.800,211.550 236.800 C 211.798 236.800,212.000 236.506,212.000 236.147 C 212.000 235.057,213.642 232.731,214.248 232.963 C 214.551 233.080,214.800 233.001,214.800 232.787 C 214.800 232.574,215.070 232.400,215.400 232.400 C 215.730 232.400,216.000 232.595,216.000 232.833 " stroke="none" fill="#fff" fill-rule="evenodd"></path></g></svg>