<svg  xmlns="http://www.w3.org/2000/svg" xmlns:xlink="http://www.w3.org/1999/xlink">
<defs>
<symbol id="icon-arrow" viewBox="0 0 32 32">
<path d="M21.333 21.614v-11.227c0.001-0.443-0.124-0.878-0.36-1.253s-0.573-0.676-0.973-0.867c-0.474-0.224-1.002-0.31-1.523-0.249s-1.014 0.268-1.424 0.596l-6.8 5.613c-0.254 0.22-0.458 0.493-0.598 0.799s-0.212 0.638-0.212 0.975 0.072 0.669 0.212 0.975c0.14 0.306 0.344 0.578 0.598 0.799l6.8 5.613c0.409 0.328 0.903 0.534 1.424 0.596s1.049-0.025 1.523-0.249c0.4-0.191 0.737-0.492 0.973-0.867s0.361-0.81 0.36-1.253z"></path>
</symbol>
<symbol id="icon-cart" viewBox="0 0 32 32">
<path d="M9.333 29.333c-0.733 0-1.361-0.261-1.883-0.783s-0.783-1.15-0.784-1.884c-0.001-0.734 0.26-1.362 0.784-1.883s1.151-0.782 1.883-0.784c0.732-0.002 1.36 0.26 1.884 0.784s0.785 1.152 0.783 1.883c-0.003 0.731-0.264 1.359-0.783 1.884s-1.147 0.786-1.884 0.783zM22.667 29.333c-0.733 0-1.361-0.261-1.883-0.783s-0.783-1.15-0.784-1.884c-0.001-0.734 0.26-1.362 0.784-1.883s1.151-0.782 1.883-0.784c0.732-0.002 1.36 0.26 1.884 0.784s0.785 1.152 0.783 1.883c-0.003 0.731-0.264 1.359-0.783 1.884s-1.147 0.786-1.884 0.783zM8.2 8l3.2 6.667h9.333l3.667-6.667h-16.2zM6.933 5.333h19.667c0.511 0 0.9 0.228 1.167 0.684s0.278 0.917 0.033 1.383l-4.733 8.533c-0.244 0.444-0.572 0.789-0.983 1.033s-0.861 0.367-1.351 0.367h-9.933l-1.467 2.667h14.667c0.378 0 0.695 0.128 0.951 0.384s0.384 0.572 0.383 0.949c-0.001 0.377-0.129 0.694-0.384 0.951s-0.572 0.384-0.949 0.383h-14.667c-1 0-1.756-0.439-2.267-1.316s-0.533-1.75-0.067-2.617l1.8-3.267-4.8-10.133h-1.333c-0.378 0-0.694-0.128-0.949-0.384s-0.383-0.572-0.384-0.949c-0.001-0.377 0.127-0.693 0.384-0.949s0.573-0.384 0.949-0.384h2.167c0.244 0 0.478 0.067 0.7 0.2s0.389 0.322 0.5 0.567l0.9 1.9z"></path>
</symbol>
<symbol id="logo-owl" viewBox="0 0 30 32">
<path d="M0.111 7.902c-0.058 0.015-0.069 0.084-0.019 0.115 0.018 0.011 0.026 0.051 0.019 0.090s-0.005 0.073 0.005 0.078 0.051 0.102 0.090 0.216c0.069 0.198 0.247 0.532 0.302 0.565 0.014 0.009 0.026 0.042 0.026 0.073s0.014 0.057 0.031 0.057c0.044 0 0.439 0.386 0.459 0.449 0.009 0.029 0.035 0.045 0.056 0.037s0.058 0.011 0.080 0.042c0.022 0.032 0.067 0.063 0.099 0.070s0.055 0.030 0.051 0.051c-0.005 0.021 0.009 0.032 0.030 0.025 0.051-0.018 0.148 0.034 0.126 0.068-0.009 0.015 0.004 0.020 0.029 0.010s0.046-0.003 0.046 0.015c0 0.018 0.020 0.033 0.044 0.033s0.044 0.015 0.044 0.033c0 0.018 0.019 0.026 0.042 0.017s0.050 0.004 0.059 0.028c0.009 0.024 0.031 0.036 0.047 0.026s0.030-0.003 0.030 0.016c0 0.019 0.020 0.027 0.044 0.017s0.044-0.004 0.044 0.012c0 0.016 0.027 0.029 0.059 0.029s0.059 0.012 0.059 0.026c0 0.015 0.021 0.034 0.046 0.044 0.026 0.010 0.038 0.005 0.028-0.012s-0.004-0.029 0.013-0.029 0.031 0.013 0.031 0.030c0 0.016 0.010 0.028 0.022 0.026 0.062-0.010 0.098 0.007 0.079 0.037-0.015 0.024 0.002 0.028 0.057 0.014 0.046-0.012 0.079-0.007 0.079 0.010 0 0.017 0.033 0.030 0.074 0.030s0.074 0.011 0.074 0.026c0 0.014 0.033 0.019 0.074 0.011 0.043-0.008 0.074-0 0.074 0.019 0 0.018 0.040 0.033 0.089 0.033s0.089 0.015 0.089 0.033c0 0.021 0.029 0.026 0.077 0.014 0.043-0.011 0.095-0.005 0.117 0.014s0.064 0.031 0.093 0.027c0.117-0.012 0.19 0.002 0.171 0.033-0.014 0.022 0.022 0.026 0.117 0.011 0.090-0.014 0.151-0.009 0.179 0.015 0.023 0.019 0.1 0.033 0.17 0.030 0.309-0.012 0.723 0.009 0.587 0.030l-0.133 0.021 0.172 0.004c0.108 0.003 0.165-0.007 0.154-0.025s0.027-0.030 0.095-0.030c0.062-0 0.205-0.009 0.318-0.020 0.229-0.022 0.259 0.029 0.040 0.065-0.069 0.011-0.142 0.034-0.161 0.049s-0.065 0.020-0.1 0.008c-0.044-0.014-0.058-0.010-0.044 0.012 0.013 0.021-0.007 0.033-0.054 0.033-0.041 0-0.081 0.012-0.090 0.026s-0.049 0.019-0.091 0.011c-0.044-0.008-0.075-0.001-0.075 0.019 0 0.018-0.033 0.033-0.074 0.033s-0.074 0.014-0.074 0.032c0 0.018-0.025 0.024-0.059 0.013-0.036-0.011-0.077-0.001-0.105 0.026-0.025 0.025-0.065 0.038-0.089 0.028s-0.044-0.003-0.044 0.013c0 0.026-0.052 0.042-0.238 0.075-0.025 0.004-0.060 0.017-0.079 0.029s-0.055 0.013-0.081 0.003c-0.026-0.010-0.047-0.003-0.047 0.015s-0.033 0.033-0.072 0.033-0.079 0.012-0.088 0.026c-0.009 0.014-0.051 0.019-0.095 0.011-0.055-0.010-0.073-0.005-0.058 0.019 0.014 0.022-0.005 0.034-0.053 0.034-0.041 0-0.083 0.015-0.094 0.032s-0.051 0.026-0.089 0.019c-0.039-0.008-0.075 0.003-0.084 0.025s-0.040 0.031-0.076 0.022-0.061-0.002-0.061 0.018c0 0.021-0.027 0.027-0.072 0.016-0.098-0.024-0.075 0.066 0.069 0.277 0.059 0.086 0.127 0.193 0.153 0.237 0.047 0.082 0.676 0.728 0.717 0.736 0.012 0.002 0.036 0.006 0.052 0.008s0.030 0.024 0.030 0.048c0 0.024 0.013 0.046 0.030 0.048s0.046 0.006 0.067 0.009c0.020 0.003 0.034 0.021 0.030 0.041-0.007 0.035 0.028 0.048 0.104 0.038 0.021-0.003 0.045 0.015 0.054 0.039s0.036 0.037 0.059 0.028 0.042-0.001 0.042 0.017c0 0.018 0.021 0.033 0.046 0.033s0.037 0.014 0.026 0.033c-0.014 0.022 0 0.026 0.043 0.013 0.039-0.012 0.063-0.007 0.063 0.013 0 0.018 0.013 0.025 0.030 0.015s0.038 0.002 0.048 0.028c0.012 0.032 0.040 0.041 0.089 0.028 0.045-0.011 0.071-0.005 0.071 0.017s0.023 0.028 0.059 0.016c0.040-0.013 0.065-0.003 0.077 0.028 0.014 0.036 0.042 0.043 0.118 0.028 0.062-0.012 0.1-0.007 0.1 0.012 0 0.038 0.825 0.037 0.848-0.001 0.009-0.014 0.061-0.017 0.117-0.006 0.066 0.012 0.101 0.008 0.101-0.014 0-0.018 0.033-0.033 0.074-0.033s0.074-0.017 0.075-0.037c0-0.025 0.008-0.027 0.022-0.005 0.025 0.037 0.156 0.012 0.164-0.032 0.003-0.016 0.022-0.028 0.043-0.025s0.037-0.009 0.037-0.024c0-0.016 0.026-0.020 0.058-0.010 0.039 0.012 0.070-0 0.093-0.038s0.059-0.052 0.112-0.044c0.061 0.010 0.068 0.006 0.033-0.019-0.038-0.027-0.037-0.032 0.007-0.032 0.029-0 0.052-0.015 0.052-0.032s0.025-0.024 0.060-0.013c0.033 0.011 0.056 0.008 0.052-0.005s-0.001-0.024 0.009-0.024c0.009 0 0.040-0.023 0.069-0.052s0.072-0.052 0.096-0.052c0.024 0 0.036-0.013 0.026-0.029s0.016-0.037 0.058-0.048c0.041-0.010 0.075-0.029 0.075-0.042s0.073-0.078 0.163-0.146c0.090-0.068 0.163-0.112 0.163-0.098 0 0.045-0.226 0.245-0.251 0.222-0.014-0.013-0.015-0.005-0.002 0.017 0.022 0.038-0.202 0.301-0.257 0.301-0.034 0-0.125 0.101-0.137 0.151-0.011 0.048-0.304 0.374-0.34 0.379-0.032 0.004-0.124 0.097-0.124 0.124 0 0.012-0.043 0.069-0.096 0.127-0.112 0.123-0.116 0.137-0.039 0.137 0.032 0 0.066 0.014 0.077 0.032s0.062 0.029 0.113 0.027c0.19-0.010 0.26 0 0.239 0.035-0.016 0.025 0.023 0.029 0.145 0.015 0.1-0.012 0.173-0.008 0.184 0.010 0.010 0.016 0.112 0.030 0.226 0.030s0.201 0.010 0.193 0.023c-0.008 0.013 0.25 0.023 0.573 0.022s0.581-0.011 0.574-0.023 0.040-0.022 0.105-0.022c0.065 0 0.127-0.014 0.138-0.032s0.052-0.024 0.091-0.014c0.040 0.010 0.071 0.005 0.071-0.012s0.020-0.030 0.044-0.030 0.091-0.026 0.148-0.059c0.058-0.032 0.105-0.051 0.105-0.042s0.022-0.005 0.049-0.032c0.036-0.036 0.054-0.040 0.071-0.013 0.015 0.025 0.028 0.018 0.040-0.022 0.010-0.032 0.062-0.089 0.114-0.128 0.057-0.042 0.079-0.050 0.055-0.019-0.035 0.043-0.035 0.048 0 0.034 0.023-0.009 0.067-0.052 0.098-0.094 0.035-0.047 0.040-0.068 0.015-0.052-0.036 0.022-0.036 0.018-0.002-0.024 0.022-0.027 0.054-0.041 0.071-0.031s0.022 0.005 0.010-0.015c-0.012-0.019 0.015-0.082 0.060-0.14s0.112-0.169 0.15-0.245l0.069-0.138-0.017 0.145c-0.020 0.169-0.039 0.226-0.074 0.226-0.014 0-0.018 0.040-0.008 0.089 0.012 0.059 0.006 0.089-0.018 0.089-0.021 0-0.028 0.022-0.018 0.055 0.025 0.078-0.013 0.171-0.048 0.118-0.016-0.024-0.018 0.011-0.007 0.086 0.014 0.091 0.009 0.126-0.018 0.126-0.023 0-0.031 0.024-0.021 0.062 0.020 0.077-0.006 0.151-0.044 0.127-0.017-0.011-0.021 0.024-0.008 0.089 0.013 0.070 0.009 0.107-0.013 0.107-0.018 0-0.031 0.023-0.028 0.052 0.010 0.12-0.004 0.173-0.034 0.126-0.019-0.030-0.023-0.007-0.011 0.074 0.024 0.161 0.036 0.168 0.211 0.135 0.084-0.016 0.24-0.021 0.346-0.011 0.136 0.013 0.194 0.008 0.194-0.016 0-0.021 0.060-0.034 0.161-0.034 0.089 0 0.169-0.013 0.179-0.029s0.057-0.021 0.105-0.011c0.056 0.011 0.088 0.005 0.088-0.016 0-0.018 0.040-0.033 0.089-0.033s0.089-0.014 0.089-0.030c0-0.017 0.031-0.022 0.074-0.012 0.046 0.011 0.074 0.006 0.074-0.014 0-0.018 0.027-0.033 0.059-0.033s0.059-0.014 0.059-0.032c0-0.018 0.025-0.024 0.059-0.013 0.035 0.011 0.059 0.005 0.059-0.015 0-0.018 0.013-0.025 0.030-0.015s0.037-0.001 0.046-0.025c0.039-0.103 0.25 0.118 0.25 0.262 0 0.022 0.011 0.044 0.025 0.049 0.023 0.009 0.33 0.488 0.33 0.516 0 0.007 0.023 0.038 0.052 0.069s0.085 0.104 0.126 0.163 0.123 0.162 0.184 0.23c0.060 0.068 0.103 0.135 0.094 0.149s0.005 0.033 0.031 0.043c0.057 0.022 0.46 0.434 0.52 0.532 0.024 0.039 0.055 0.072 0.068 0.072s0.014-0.017 0.002-0.037c-0.013-0.020 0.019-0.004 0.071 0.037s0.102 0.098 0.113 0.128 0.036 0.048 0.056 0.040c0.021-0.008 0.069 0.015 0.108 0.051s0.094 0.074 0.123 0.085 0.052 0.034 0.052 0.050c0 0.017 0.014 0.031 0.030 0.031s0.105 0.043 0.198 0.095c0.189 0.106 0.171 0.149-0.023 0.055-0.069-0.033-0.132-0.055-0.139-0.048s-0.033-0.006-0.057-0.030c-0.024-0.024-0.056-0.036-0.071-0.026s-0.027 0.002-0.027-0.016-0.017-0.031-0.037-0.028c-0.061 0.007-0.17-0.036-0.17-0.068 0-0.016-0.027-0.023-0.059-0.014s-0.059 0.003-0.059-0.011c0-0.015-0.020-0.027-0.044-0.027s-0.044-0.013-0.044-0.029c0-0.016-0.020-0.021-0.044-0.012s-0.044 0.002-0.044-0.016c0-0.018-0.020-0.033-0.044-0.033s-0.044-0.013-0.044-0.029c0-0.016-0.020-0.021-0.044-0.012s-0.044 0.002-0.044-0.016c0-0.018-0.019-0.033-0.041-0.033s-0.049-0.021-0.059-0.046-0.030-0.039-0.045-0.029c-0.015 0.009-0.046-0.001-0.068-0.024-0.069-0.069-0.169-0.088-0.189-0.036-0.010 0.025-0.026 0.041-0.037 0.035s-0.021 0.029-0.023 0.079c-0.002 0.050-0.025 0.107-0.051 0.126s-0.040 0.043-0.030 0.053c0.030 0.030-0.053 0.199-0.087 0.178-0.019-0.012-0.024-0.001-0.013 0.028 0.016 0.041-0.028 0.167-0.204 0.585-0.024 0.057-0.055 0.124-0.068 0.149s-0.034 0.088-0.045 0.141c-0.011 0.052-0.033 0.095-0.048 0.095s-0.027 0.021-0.027 0.046c0 0.040-0.025 0.105-0.148 0.384-0.014 0.033-0.035 0.093-0.047 0.133s-0.029 0.081-0.039 0.089-0.054 0.115-0.098 0.237c-0.135 0.378-0.382 0.962-0.412 0.973-0.015 0.005-0.021 0.021-0.013 0.034 0.013 0.021-0.027 0.143-0.103 0.312-0.015 0.033-0.070 0.166-0.122 0.296s-0.104 0.244-0.115 0.252c-0.011 0.008-0.037 0.079-0.058 0.156s-0.050 0.149-0.065 0.157-0.026 0.036-0.026 0.060c0 0.042-0.089 0.266-0.149 0.374-0.016 0.028-0.029 0.085-0.029 0.127v0.075l0.696-0.006c0.383-0.003 0.696-0.017 0.696-0.030s0.053-0.024 0.117-0.024c0.064 0 0.126-0.014 0.137-0.032s0.052-0.024 0.091-0.014c0.040 0.010 0.071 0.005 0.071-0.012s0.026-0.030 0.057-0.030 0.066-0.014 0.077-0.032c0.011-0.017 0.038-0.025 0.061-0.016s0.041 0.003 0.041-0.013c0-0.016 0.020-0.029 0.044-0.029s0.044-0.015 0.044-0.033c0-0.018 0.020-0.025 0.044-0.016s0.044 0.004 0.044-0.012c0-0.016 0.019-0.029 0.042-0.029s0.047-0.014 0.052-0.031 0.031-0.034 0.056-0.038c0.025-0.004 0.083-0.042 0.13-0.085s0.102-0.071 0.124-0.063c0.023 0.009 0.040-0.004 0.040-0.029s0.067-0.105 0.148-0.178 0.148-0.142 0.148-0.154c0-0.050 0.126-0.191 0.155-0.174 0.019 0.012 0.023 0.006 0.011-0.014-0.011-0.019 0.013-0.084 0.055-0.145 0.043-0.063 0.075-0.091 0.075-0.063 0 0.026-0.020 0.064-0.045 0.085-0.031 0.025-0.036 0.048-0.015 0.073s0.019 0.070 0 0.137c-0.016 0.056-0.029 0.151-0.029 0.213s-0.012 0.111-0.027 0.111c-0.029 0-0.033 0.863-0.004 0.889 0.009 0.008 0.056 0.093 0.104 0.189s0.131 0.227 0.185 0.292c0.054 0.064 0.098 0.136 0.098 0.159s0.013 0.042 0.029 0.042c0.034 0 0.235 0.21 0.237 0.246 0 0.013 0.044 0.067 0.097 0.12 0.14 0.14 0.304 0.347 0.304 0.385 0 0.050 0.143 0.124 0.157 0.081 0.010-0.029 0.105-0.149 0.368-0.461 0.028-0.033 0.105-0.119 0.17-0.19s0.119-0.139 0.119-0.151c0-0.012 0.044-0.067 0.098-0.122 0.145-0.15 0.31-0.413 0.333-0.531 0.011-0.057 0.034-0.12 0.049-0.139 0.017-0.022 0.021-0.174 0.010-0.385-0.010-0.192-0.020-0.413-0.022-0.49s-0.015-0.141-0.029-0.141c-0.014 0-0.025-0.045-0.025-0.099s-0.015-0.141-0.032-0.192c-0.051-0.147-0.013-0.18 0.058-0.049 0.127 0.234 0.128 0.235 0.402 0.516 0.113 0.115 0.217 0.21 0.231 0.21s0.018 0.013 0.008 0.030 0.004 0.030 0.031 0.030c0.048 0 0.218 0.105 0.254 0.157 0.010 0.014 0.026 0.026 0.036 0.026 0.064 0 0.135 0.036 0.119 0.061-0.011 0.018 0.006 0.022 0.045 0.009s0.063-0.007 0.063 0.013c0 0.018 0.013 0.026 0.028 0.016s0.045 0.001 0.066 0.023c0.021 0.022 0.060 0.035 0.087 0.028s0.058 0.002 0.069 0.019c0.011 0.018 0.059 0.032 0.107 0.032s0.087 0.012 0.087 0.028c0 0.015 0.063 0.028 0.141 0.029s0.451 0.010 0.83 0.019c0.613 0.015 0.689 0.012 0.689-0.029 0-0.026-0.012-0.046-0.026-0.046s-0.034-0.023-0.045-0.052c-0.010-0.029-0.027-0.070-0.037-0.093-0.012-0.026-0.006-0.033 0.015-0.021s0.027 0.004 0.015-0.027c-0.010-0.026-0.025-0.040-0.034-0.032-0.025 0.025-0.099-0.138-0.083-0.182 0.008-0.021 0.003-0.039-0.011-0.039-0.024 0-0.065-0.087-0.18-0.385-0.028-0.073-0.127-0.317-0.218-0.542s-0.167-0.428-0.167-0.452c0-0.024-0.012-0.043-0.027-0.043s-0.036-0.053-0.047-0.119c-0.011-0.065-0.032-0.119-0.046-0.119s-0.034-0.047-0.045-0.104c-0.011-0.057-0.030-0.104-0.043-0.104s-0.033-0.041-0.044-0.091c-0.011-0.050-0.039-0.127-0.061-0.17s-0.042-0.103-0.042-0.131c-0-0.029-0.012-0.052-0.027-0.052s-0.035-0.037-0.045-0.081-0.045-0.135-0.076-0.2c-0.031-0.065-0.145-0.339-0.253-0.607s-0.216-0.533-0.241-0.587c-0.025-0.054-0.038-0.116-0.030-0.138s-0.004-0.047-0.027-0.056c-0.023-0.009-0.043-0.033-0.044-0.054s-0.027-0.091-0.058-0.157-0.058-0.141-0.058-0.169c-0.001-0.028-0.013-0.057-0.027-0.066s-0.056-0.1-0.094-0.202c-0.037-0.102-0.070-0.189-0.072-0.193-0.014-0.022-0.193 0.071-0.193 0.1 0 0.020-0.040 0.064-0.089 0.099s-0.089 0.054-0.089 0.042c0-0.011-0.028 0.014-0.062 0.058s-0.074 0.071-0.089 0.061c-0.015-0.009-0.035 0.003-0.045 0.029s-0.063 0.062-0.118 0.082-0.101 0.046-0.101 0.057c0 0.025-0.119 0.065-0.173 0.058-0.022-0.003-0.031 0.009-0.021 0.026s-0.004 0.032-0.035 0.032c-0.030 0-0.070 0.015-0.087 0.032-0.023 0.023-0.038 0.023-0.053-0.001-0.024-0.039 0.36-0.403 0.419-0.397 0.021 0.002 0.032-0.007 0.023-0.021s0.112-0.155 0.267-0.315c0.155-0.159 0.282-0.297 0.282-0.307s0.047-0.068 0.104-0.13 0.104-0.12 0.104-0.128c0-0.013 0.067-0.096 0.252-0.311 0.025-0.029 0.045-0.059 0.045-0.068 0-0.018 0.124-0.198 0.152-0.221 0.010-0.008 0.061-0.091 0.114-0.185 0.055-0.097 0.109-0.162 0.127-0.151s0.023 0.005 0.011-0.014c-0.034-0.055 0.123-0.332 0.188-0.332 0.031 0 0.065 0.014 0.076 0.030s0.031 0.022 0.046 0.013c0.015-0.009 0.028-0.003 0.028 0.013s0.019 0.023 0.041 0.015c0.023-0.009 0.050-0.002 0.061 0.016s0.045 0.032 0.077 0.032c0.032 0 0.057 0.012 0.057 0.027s0.025 0.020 0.056 0.012c0.031-0.008 0.065-0 0.076 0.018s0.058 0.032 0.105 0.032 0.094 0.014 0.105 0.032 0.051 0.024 0.089 0.015c0.038-0.010 0.077-0.004 0.087 0.012s0.084 0.030 0.165 0.030 0.146 0.012 0.146 0.026c0 0.014 0.143 0.026 0.319 0.027s0.345 0.006 0.378 0.011c0.052 0.009 0.058-0.005 0.051-0.109-0.016-0.236-0.022-0.281-0.041-0.281-0.010 0-0.026-0.043-0.035-0.096-0.036-0.209-0.095-0.454-0.119-0.491-0.014-0.021-0.017-0.071-0.007-0.111 0.010-0.041 0.005-0.072-0.012-0.072s-0.030-0.037-0.030-0.083-0.012-0.096-0.027-0.111c-0.015-0.015-0.036-0.101-0.046-0.191l-0.020-0.163 0.105 0.201c0.058 0.11 0.132 0.23 0.165 0.265s0.060 0.082 0.060 0.103c0 0.021 0.027 0.066 0.059 0.098 0.067 0.067 0.103 0.078 0.071 0.022-0.017-0.029 0.092 0.053 0.166 0.126 0.033 0.033 0.403 0.208 0.437 0.208 0.020-0 0.037 0.013 0.037 0.030s0.031 0.022 0.074 0.012c0.046-0.011 0.074-0.006 0.074 0.014 0 0.019 0.056 0.033 0.135 0.033 0.074 0 0.129 0.010 0.121 0.022s0.252 0.023 0.576 0.024c0.324 0.001 0.573-0.009 0.553-0.022-0.022-0.014 0.011-0.025 0.082-0.027 0.065-0.002 0.172-0.009 0.237-0.016s0.196-0.011 0.291-0.010c0.113 0.001 0.166-0.009 0.154-0.029s0.030-0.031 0.116-0.031c0.075 0 0.187-0.016 0.251-0.036l0.115-0.036-0.094-0.118c-0.052-0.065-0.094-0.127-0.094-0.136 0-0.027-0.095-0.118-0.124-0.118-0.023-0-0.395-0.397-0.395-0.421 0-0.006-0.133-0.148-0.296-0.315-0.296-0.305-0.394-0.449-0.185-0.272 0.229 0.193 0.25 0.209 0.278 0.209 0.015 0 0.036 0.020 0.045 0.044s0.036 0.044 0.060 0.044c0.024 0 0.035 0.013 0.025 0.029s0.001 0.022 0.028 0.012c0.025-0.010 0.046-0.003 0.046 0.015s0.017 0.029 0.037 0.025 0.033 0.011 0.028 0.033c-0.006 0.027 0.008 0.034 0.039 0.022 0.052-0.020 0.142 0.050 0.109 0.085-0.011 0.012 0.006 0.019 0.038 0.015 0.087-0.009 0.195 0.032 0.174 0.066-0.011 0.018 0.006 0.022 0.045 0.009 0.037-0.012 0.063-0.007 0.063 0.012 0 0.017 0.027 0.032 0.059 0.032s0.059 0.012 0.059 0.026c0 0.041 0.114 0.061 0.13 0.023 0.010-0.023 0.015-0.022 0.016 0.003 0.001 0.020 0.036 0.037 0.076 0.037s0.074 0.015 0.074 0.033c0 0.022 0.036 0.026 0.104 0.013 0.062-0.012 0.104-0.008 0.104 0.010s0.164 0.029 0.43 0.028c0.264-0.001 0.43-0.013 0.43-0.031s0.047-0.022 0.119-0.009c0.092 0.016 0.118 0.011 0.111-0.020-0.005-0.026 0.015-0.037 0.058-0.031 0.037 0.005 0.067-0.006 0.067-0.024s0.024-0.026 0.056-0.016c0.036 0.011 0.062 0.001 0.074-0.031 0.011-0.028 0.037-0.041 0.063-0.031 0.024 0.009 0.044 0.003 0.044-0.014s0.026-0.022 0.063-0.011c0.042 0.013 0.056 0.009 0.043-0.013-0.011-0.019-0-0.033 0.026-0.033s0.046-0.014 0.046-0.032c0-0.018 0.025-0.024 0.060-0.013 0.041 0.013 0.057 0.007 0.052-0.020-0.004-0.022 0.012-0.041 0.036-0.043s0.061-0.005 0.081-0.007c0.020-0.002 0.034-0.019 0.030-0.039s0.009-0.038 0.030-0.041c0.020-0.003 0.050-0.007 0.067-0.009s0.026-0.020 0.022-0.041 0.018-0.037 0.049-0.037c0.031-0 0.064-0.021 0.074-0.048s0.078-0.1 0.151-0.163c0.312-0.272 0.8-0.88 0.8-0.998 0-0.025 0.017-0.053 0.037-0.063s-0.006-0.011-0.059-0.003c-0.056 0.008-0.096 0.001-0.096-0.016s-0.023-0.028-0.052-0.025c-0.095 0.010-0.13-0.001-0.109-0.034 0.014-0.022-0.001-0.026-0.044-0.012-0.035 0.011-0.082 0.006-0.104-0.013s-0.051-0.031-0.065-0.029c-0.060 0.011-0.102-0.005-0.085-0.032 0.011-0.018-0.016-0.022-0.072-0.011-0.058 0.012-0.090 0.006-0.090-0.015 0-0.018-0.033-0.033-0.074-0.033s-0.074-0.014-0.074-0.032c0-0.018-0.025-0.024-0.057-0.014s-0.065 0.004-0.076-0.013c-0.010-0.017-0.052-0.031-0.091-0.031s-0.072-0.011-0.072-0.026c0-0.014-0.033-0.019-0.074-0.011-0.045 0.009-0.074 0.001-0.074-0.020 0-0.019-0.017-0.032-0.037-0.030-0.079 0.010-0.143-0.003-0.129-0.028 0.009-0.014-0.016-0.019-0.054-0.012s-0.079-0.001-0.090-0.019c-0.011-0.018-0.053-0.032-0.094-0.032-0.048 0-0.067-0.012-0.053-0.034 0.015-0.023-0.003-0.029-0.058-0.019-0.044 0.008-0.086 0.004-0.095-0.011s-0.049-0.026-0.090-0.026c-0.048 0-0.067-0.012-0.053-0.034 0.015-0.024-0.002-0.028-0.056-0.015-0.042 0.011-0.084 0.007-0.093-0.008s-0.083-0.036-0.165-0.047c-0.23-0.032-0.186-0.086 0.052-0.064 0.11 0.010 0.253 0.019 0.319 0.020 0.087 0.001 0.107 0.008 0.074 0.029-0.031 0.020 0.013 0.029 0.148 0.029s0.179-0.009 0.148-0.029c-0.043-0.028 0.209-0.043 0.523-0.030 0.068 0.003 0.132-0.010 0.143-0.028 0.013-0.021 0.073-0.025 0.17-0.012 0.11 0.015 0.145 0.011 0.129-0.014-0.021-0.034 0.043-0.047 0.182-0.035 0.037 0.003 0.067-0.010 0.067-0.030 0-0.024 0.033-0.029 0.104-0.016 0.065 0.012 0.104 0.008 0.104-0.012 0-0.017 0.040-0.031 0.089-0.031s0.089-0.015 0.089-0.033c0-0.020 0.028-0.026 0.074-0.014 0.043 0.011 0.074 0.006 0.074-0.012s0.033-0.030 0.074-0.030 0.074-0.014 0.074-0.032 0.025-0.024 0.059-0.013 0.059 0.005 0.059-0.013c0-0.017 0.027-0.032 0.059-0.032s0.059-0.013 0.059-0.030c0-0.016 0.026-0.030 0.057-0.030s0.066-0.014 0.076-0.030c0.010-0.017 0.030-0.023 0.044-0.014s0.034 0.003 0.043-0.013c0.010-0.016 0.037-0.021 0.061-0.012s0.043 0.002 0.043-0.016c0-0.018 0.020-0.033 0.044-0.033s0.044-0.013 0.044-0.029c0-0.016 0.020-0.021 0.044-0.012s0.044 0.002 0.044-0.016c0-0.018 0.020-0.033 0.044-0.033s0.044-0.015 0.044-0.033c0-0.018 0.021-0.025 0.046-0.015s0.038 0.005 0.029-0.010c-0.009-0.015 0.010-0.042 0.043-0.060s0.060-0.022 0.060-0.010c0 0.012 0.020-0.007 0.045-0.042 0.026-0.037 0.064-0.058 0.089-0.048 0.027 0.010 0.044-0.001 0.044-0.031 0-0.045 0.032-0.060 0.109-0.050 0.019 0.002 0.043-0.021 0.053-0.051 0.021-0.066 0.411-0.449 0.457-0.449 0.017 0 0.024-0.019 0.015-0.043s0.010-0.059 0.045-0.081c0.034-0.021 0.062-0.056 0.062-0.076s0.036-0.094 0.081-0.163c0.044-0.069 0.082-0.132 0.084-0.14s0.020-0.055 0.040-0.104c0.020-0.049 0.052-0.139 0.071-0.2s0.044-0.111 0.056-0.111c0.012 0 0.013-0.021 0.004-0.046s0-0.080 0.022-0.12c0.034-0.063 0.033-0.078-0.003-0.101-0.061-0.038-0.199-0.035-0.212 0.005-0.007 0.020-0.074 0.032-0.165 0.030-0.085-0.002-0.154 0.010-0.154 0.026 0 0.018-0.063 0.022-0.168 0.010-0.123-0.015-0.162-0.011-0.146 0.015 0.023 0.037-0.043 0.048-0.212 0.036-0.059-0.004-0.096 0.007-0.096 0.029 0 0.026-0.046 0.030-0.166 0.015-0.117-0.015-0.16-0.011-0.146 0.011 0.021 0.034-0.049 0.045-0.213 0.034-0.058-0.004-0.096 0.007-0.096 0.028 0 0.025-0.052 0.029-0.185 0.015s-0.173-0.011-0.141 0.011c0.049 0.034-0.019 0.046-0.197 0.034-0.051-0.003-0.103 0.009-0.114 0.027-0.014 0.022-0.077 0.027-0.188 0.015-0.121-0.013-0.155-0.010-0.123 0.013 0.049 0.035-0.018 0.047-0.197 0.034-0.051-0.003-0.101 0.007-0.111 0.023s-0.101 0.023-0.203 0.016c-0.13-0.009-0.168-0.004-0.126 0.016 0.068 0.032-0.008 0.047-0.172 0.034-0.046-0.004-0.102 0.009-0.124 0.027-0.027 0.022-0.090 0.027-0.18 0.013-0.101-0.015-0.134-0.012-0.119 0.013 0.022 0.036-0.044 0.047-0.209 0.036-0.051-0.003-0.102 0.009-0.114 0.027-0.013 0.022-0.083 0.027-0.203 0.015-0.133-0.013-0.171-0.010-0.138 0.013 0.050 0.035-0.002 0.047-0.157 0.035-0.046-0.004-0.102 0.009-0.125 0.028-0.027 0.022-0.085 0.027-0.165 0.014-0.089-0.015-0.13-0.010-0.147 0.019-0.015 0.025-0.073 0.037-0.158 0.034-0.074-0.003-0.142 0.008-0.152 0.025-0.011 0.018-0.071 0.022-0.153 0.010-0.098-0.015-0.141-0.009-0.159 0.020-0.016 0.027-0.075 0.038-0.175 0.033-0.095-0.004-0.15 0.006-0.15 0.027s-0.037 0.028-0.104 0.017c-0.061-0.010-0.146 0-0.204 0.025-0.059 0.025-0.143 0.034-0.207 0.024s-0.108-0.005-0.108 0.013c0 0.032-0.29 0.072-0.496 0.068-0.069-0.001-0.126 0.010-0.126 0.024 0 0.029-0.3 0.068-0.496 0.065-0.069-0.001-0.126 0.010-0.126 0.025s-0.057 0.027-0.126 0.028c-0.069 0-0.162 0.014-0.205 0.031s-0.127 0.023-0.185 0.013c-0.063-0.010-0.106-0.005-0.106 0.013 0 0.032-0.29 0.072-0.496 0.068-0.069-0.001-0.126 0.011-0.126 0.028s-0.037 0.028-0.081 0.025-0.115 0.006-0.156 0.020c-0.041 0.014-0.104 0.022-0.141 0.018s-0.067 0.007-0.067 0.024c0 0.017-0.033 0.032-0.074 0.032s-0.074 0.014-0.074 0.032c0 0.018-0.025 0.024-0.059 0.013-0.035-0.011-0.059-0.005-0.059 0.015 0 0.018-0.012 0.026-0.027 0.017s-0.048 0.004-0.074 0.030-0.060 0.038-0.076 0.028c-0.016-0.010-0.030-0.004-0.030 0.013s-0.020 0.031-0.044 0.031c-0.024 0-0.044 0.015-0.044 0.033s-0.020 0.025-0.044 0.016c-0.024-0.009-0.044-0.004-0.044 0.012s-0.019 0.029-0.042 0.029c-0.023 0-0.046 0.010-0.052 0.022-0.014 0.031-0.201 0.161-0.242 0.167-0.019 0.003-0.154 0.128-0.301 0.278s-0.283 0.273-0.303 0.273c-0.020 0-0.030 0.018-0.022 0.039s-0.009 0.065-0.038 0.098c-0.063 0.071-0.118 0.164-0.266 0.449l-0.111 0.214-0.052-0.132c-0.029-0.073-0.043-0.155-0.033-0.182 0.013-0.033 0.008-0.043-0.014-0.029-0.020 0.012-0.054-0.019-0.083-0.077-0.027-0.053-0.058-0.104-0.069-0.112s-0.046-0.050-0.079-0.093-0.121-0.131-0.197-0.197c-0.076-0.065-0.131-0.125-0.123-0.133s-0.020-0.023-0.061-0.033c-0.042-0.010-0.075-0.032-0.075-0.048s-0.019-0.029-0.042-0.029c-0.023 0-0.060-0.018-0.081-0.039-0.045-0.045-0.046-0.045-0.135-0.069-0.037-0.010-0.067-0.029-0.067-0.044s-0.010-0.023-0.022-0.020c-0.043 0.011-0.156-0.040-0.156-0.071 0-0.017-0.027-0.024-0.059-0.016s-0.059 0.003-0.059-0.011c0-0.015-0.033-0.027-0.074-0.027s-0.074-0.015-0.074-0.033c0-0.018-0.026-0.026-0.059-0.018s-0.067 0.003-0.076-0.011c-0.009-0.015-0.056-0.027-0.104-0.027s-0.087-0.015-0.087-0.033c0-0.021-0.032-0.027-0.088-0.016-0.048 0.010-0.096 0.005-0.105-0.011s-0.077-0.029-0.149-0.029-0.132-0.011-0.132-0.024c0-0.013-0.3-0.025-0.667-0.025s-0.667 0.009-0.667 0.021c0 0.022-0.234 0.057-0.393 0.059-0.045 0.001-0.081 0.014-0.081 0.029s-0.039 0.028-0.087 0.028c-0.048 0-0.096 0.014-0.106 0.031s-0.045 0.023-0.076 0.013c-0.032-0.010-0.057-0.004-0.057 0.014s-0.027 0.032-0.059 0.032-0.059 0.014-0.059 0.032-0.025 0.024-0.059 0.013-0.059-0.005-0.059 0.013-0.020 0.032-0.044 0.032-0.044 0.011-0.044 0.024c0 0.013-0.049 0.042-0.11 0.063s-0.128 0.058-0.151 0.080c-0.022 0.022-0.051 0.034-0.064 0.026s-0.047 0.019-0.074 0.061c-0.027 0.042-0.066 0.071-0.085 0.065-0.041-0.014-0.22 0.162-0.206 0.203 0.005 0.016-0.016 0.056-0.048 0.090-0.065 0.070-0.181 0.311-0.181 0.377 0 0.024-0.013 0.053-0.030 0.063s-0.030 0.060-0.030 0.111c0 0.106-0.086 0.033-0.088-0.074-0.001-0.029-0.012-0.052-0.026-0.052s-0.057-0.063-0.096-0.14c-0.039-0.077-0.094-0.166-0.123-0.198s-0.068-0.096-0.089-0.142c-0.020-0.046-0.045-0.083-0.054-0.083s-0.062-0.056-0.117-0.124c-0.055-0.068-0.080-0.113-0.057-0.099s-0.017-0.034-0.090-0.106c-0.073-0.072-0.142-0.127-0.153-0.124s-0.063-0.033-0.115-0.081c-0.052-0.049-0.106-0.088-0.12-0.088s-0.040-0.027-0.058-0.060c-0.018-0.033-0.044-0.053-0.058-0.044s-0.049-0.007-0.077-0.035-0.069-0.054-0.091-0.057c-0.022-0.003-0.061-0.027-0.087-0.053s-0.059-0.040-0.073-0.032c-0.014 0.009-0.034 0.002-0.044-0.015s-0.031-0.023-0.047-0.014c-0.015 0.009-0.028 0.002-0.028-0.017s-0.017-0.028-0.037-0.022-0.054-0.005-0.075-0.026c-0.021-0.021-0.060-0.030-0.087-0.020-0.034 0.013-0.042 0.008-0.025-0.019s0.007-0.033-0.037-0.019c-0.033 0.011-0.069 0.005-0.080-0.012s-0.058-0.031-0.106-0.031-0.087-0.012-0.087-0.028c0-0.015-0.043-0.028-0.096-0.029-0.2-0.003-0.437-0.039-0.437-0.066 0-0.015-0.063-0.026-0.141-0.024-0.19 0.005-0.452-0.028-0.531-0.067-0.035-0.017-0.101-0.024-0.147-0.016s-0.116 0.003-0.157-0.013c-0.041-0.016-0.138-0.029-0.216-0.029s-0.142-0.014-0.142-0.029-0.063-0.027-0.141-0.025c-0.194 0.004-0.454-0.028-0.531-0.065-0.035-0.017-0.102-0.024-0.148-0.015s-0.126-0.002-0.178-0.023c-0.055-0.023-0.144-0.032-0.215-0.023-0.084 0.011-0.121 0.005-0.121-0.020 0-0.023-0.041-0.034-0.111-0.031-0.197 0.009-0.249 0.001-0.227-0.034 0.015-0.024-0.025-0.028-0.146-0.013-0.119 0.015-0.167 0.011-0.167-0.014 0-0.022-0.046-0.032-0.126-0.028-0.191 0.010-0.236 0.003-0.212-0.035 0.015-0.025-0.027-0.029-0.161-0.013-0.128 0.014-0.182 0.011-0.182-0.013 0-0.020-0.045-0.031-0.111-0.028-0.212 0.010-0.264 0.002-0.215-0.033 0.032-0.023-0.006-0.026-0.138-0.013-0.12 0.012-0.19 0.007-0.203-0.015-0.011-0.018-0.062-0.030-0.114-0.027-0.166 0.011-0.231-0-0.209-0.036 0.015-0.025-0.027-0.029-0.161-0.013-0.128 0.015-0.182 0.011-0.182-0.013 0-0.020-0.044-0.031-0.111-0.027-0.2 0.012-0.265 0.002-0.215-0.034 0.032-0.023-0.006-0.026-0.141-0.013-0.129 0.013-0.185 0.008-0.185-0.015 0-0.020-0.044-0.031-0.111-0.027-0.2 0.012-0.265 0.002-0.215-0.034 0.033-0.023-0.005-0.027-0.139-0.015-0.105 0.009-0.191 0.004-0.201-0.012s-0.085-0.027-0.168-0.025c-0.093 0.002-0.159-0.011-0.173-0.034-0.017-0.027-0.066-0.032-0.175-0.018-0.103 0.014-0.151 0.010-0.151-0.013 0-0.019-0.046-0.031-0.111-0.028-0.199 0.009-0.249 0.001-0.227-0.035 0.016-0.025-0.023-0.029-0.145-0.015-0.099 0.012-0.173 0.008-0.184-0.010-0.010-0.016-0.085-0.028-0.168-0.026-0.087 0.002-0.159-0.011-0.172-0.032-0.015-0.024-0.069-0.029-0.175-0.015-0.111 0.015-0.153 0.010-0.153-0.015 0-0.022-0.041-0.034-0.111-0.031-0.207 0.010-0.264 0.002-0.215-0.030 0.047-0.030-0.108-0.037-0.215-0.009zM14.163 10.785c0.063 0 0.086 0.011 0.071 0.034s-0.001 0.029 0.043 0.018c0.035-0.009 0.064-0.006 0.064 0.007s0.032 0.032 0.072 0.042c0.040 0.010 0.081 0.045 0.091 0.077s0.039 0.059 0.063 0.059 0.111 0.068 0.194 0.15l0.15 0.15 0.065-0.061c0.036-0.034 0.077-0.051 0.090-0.039s0.016 0.008 0.006-0.010c-0.010-0.018 0.017-0.065 0.061-0.104 0.064-0.057 0.072-0.059 0.040-0.012-0.022 0.033 0.022-0.007 0.097-0.088s0.137-0.128 0.138-0.104c0.001 0.029 0.013 0.022 0.037-0.019 0.020-0.034 0.054-0.056 0.076-0.048s0.051-0.003 0.065-0.025c0.034-0.056 0.526-0.055 0.561 0.001 0.014 0.022 0.045 0.032 0.070 0.023s0.052 0.002 0.062 0.027c0.009 0.024 0.029 0.037 0.043 0.028 0.036-0.022 0.156 0.087 0.129 0.116-0.012 0.013-0.007 0.015 0.012 0.005 0.044-0.025 0.241 0.217 0.231 0.284-0.004 0.029 0.004 0.044 0.019 0.035 0.046-0.028 0.090 0.14 0.071 0.267-0.013 0.088-0.010 0.108 0.013 0.075s0.031 0.006 0.031 0.148c0 0.144-0.008 0.181-0.032 0.148s-0.028-0.012-0.017 0.083c0.016 0.137-0.027 0.343-0.066 0.319-0.013-0.008-0.017 0.018-0.010 0.059 0.008 0.043 0 0.073-0.019 0.073s-0.033 0.021-0.033 0.046c0 0.027-0.014 0.038-0.034 0.025-0.022-0.014-0.026-0.008-0.011 0.016 0.026 0.042-0.040 0.185-0.075 0.164-0.012-0.008-0.016 0.010-0.008 0.040s-0.007 0.071-0.032 0.093c-0.026 0.021-0.047 0.051-0.047 0.066 0 0.046-0.212 0.306-0.242 0.298-0.016-0.004-0.022 0.003-0.013 0.017 0.022 0.035-0.065 0.154-0.114 0.154-0.022 0-0.047 0.030-0.056 0.067-0.020 0.079-0.404 0.468-0.404 0.409 0-0.022-0.040 0.015-0.089 0.082s-0.102 0.125-0.119 0.127c-0.016 0.002-0.042 0.005-0.056 0.007s-0.057 0.041-0.093 0.088c-0.046 0.059-0.073 0.073-0.088 0.048s-0.029-0.015-0.043 0.029c-0.011 0.036-0.037 0.059-0.058 0.051s-0.054 0.009-0.074 0.037c-0.044 0.061-0.145 0.060-0.191-0.002-0.018-0.025-0.049-0.040-0.068-0.033s-0.043-0.015-0.053-0.048c-0.010-0.033-0.035-0.054-0.054-0.046s-0.089-0.034-0.154-0.090c-0.065-0.057-0.128-0.103-0.141-0.103s-0.023-0.017-0.023-0.038c0-0.041-0.103-0.14-0.146-0.14-0.040 0-0.328-0.303-0.328-0.345 0-0.020-0.023-0.044-0.052-0.054s-0.105-0.091-0.17-0.181c-0.065-0.090-0.133-0.18-0.15-0.199-0.075-0.087-0.25-0.397-0.25-0.444 0-0.028-0.010-0.051-0.022-0.051-0.030 0-0.090-0.14-0.114-0.267-0.011-0.057-0.032-0.12-0.048-0.139s-0.019-0.076-0.008-0.126c0.013-0.057 0.008-0.090-0.012-0.090-0.019 0-0.032-0.062-0.032-0.148 0-0.089 0.013-0.148 0.033-0.148 0.021 0 0.026-0.035 0.014-0.101-0.010-0.056-0.007-0.109 0.008-0.118s0.034-0.055 0.044-0.101c0.009-0.047 0.056-0.127 0.105-0.178s0.080-0.094 0.071-0.094c-0.009 0 0.008-0.027 0.037-0.059s0.060-0.053 0.069-0.045 0.033-0.012 0.056-0.044c0.023-0.032 0.061-0.059 0.084-0.059s0.043-0.012 0.043-0.027c0-0.015 0.027-0.020 0.059-0.011s0.059 0.001 0.059-0.018c0-0.018 0.043-0.034 0.096-0.035s0.123-0.013 0.156-0.026 0.082-0.012 0.109 0.002c0.027 0.014 0.092 0.026 0.142 0.026zM13.363 11.612c0 0.113-0.009 0.228-0.020 0.257-0.014 0.035-0.009 0.045 0.015 0.030 0.036-0.022 0.099 0.095 0.074 0.138-0.007 0.012 0.006 0.022 0.028 0.022s0.057 0.033 0.075 0.074c0.020 0.043 0.059 0.074 0.094 0.074 0.033 0 0.060 0.012 0.060 0.026 0 0.029 0.112 0.072 0.17 0.065 0.020-0.003 0.037 0.010 0.037 0.029s0.030 0.031 0.067 0.028c0.127-0.010 0.174 0.001 0.153 0.035-0.015 0.024 0.004 0.029 0.062 0.018 0.091-0.017 0.136 0.015 0.249 0.179 0.037 0.054 0.060 0.117 0.051 0.141s-0.004 0.043 0.012 0.043c0.016 0 0.029 0.026 0.029 0.057s0.012 0.065 0.026 0.073c0.014 0.009 0.036 0.073 0.049 0.142 0.030 0.164 0.026 0.15 0.055 0.195 0.013 0.021 0.016 0.071 0.006 0.111-0.010 0.041-0.005 0.072 0.012 0.072s0.030 0.063 0.030 0.139c0 0.081 0.011 0.127 0.026 0.111 0.033-0.036 0.068-0.761 0.036-0.741-0.031 0.019-0.066-0.146-0.043-0.206 0.010-0.025 0.001-0.045-0.019-0.045-0.025 0-0.031-0.029-0.019-0.089 0.010-0.049 0.006-0.089-0.007-0.089-0.037 0-0.101-0.169-0.078-0.206 0.011-0.017 0.005-0.031-0.012-0.031s-0.055-0.050-0.083-0.111c-0.028-0.061-0.068-0.129-0.088-0.15-0.035-0.037-0.049-0.081-0.041-0.131 0.002-0.012-0.017-0.022-0.042-0.022s-0.069-0.040-0.096-0.088c-0.028-0.049-0.064-0.087-0.080-0.085-0.074 0.007-0.104-0.007-0.104-0.052 0-0.030-0.016-0.041-0.044-0.031-0.024 0.009-0.044 0.004-0.044-0.012s-0.021-0.029-0.046-0.029c-0.027 0-0.038-0.014-0.025-0.034 0.015-0.024-0.002-0.028-0.057-0.014-0.049 0.012-0.079 0.008-0.079-0.012 0-0.018-0.023-0.030-0.052-0.027-0.102 0.010-0.159-0.002-0.141-0.031 0.011-0.018-0.024-0.030-0.087-0.030h-0.105v0.205zM16.26 11.442c-0.006 0.019-0.054 0.033-0.106 0.032s-0.095 0.011-0.095 0.027c0 0.017-0.027 0.021-0.063 0.010-0.042-0.013-0.056-0.009-0.043 0.013 0.011 0.019 0 0.033-0.026 0.033s-0.046 0.015-0.046 0.033c0 0.018-0.018 0.026-0.039 0.018s-0.056 0.011-0.076 0.044c-0.021 0.034-0.055 0.052-0.081 0.042s-0.036-0.004-0.026 0.012c0.010 0.016 0 0.029-0.021 0.029-0.044 0-0.152 0.113-0.16 0.169-0.003 0.019-0.037 0.079-0.077 0.133s-0.097 0.155-0.129 0.224c-0.032 0.069-0.067 0.126-0.079 0.126s-0.014 0.020-0.005 0.043c0.009 0.024 0.006 0.060-0.008 0.081s-0.029 0.072-0.034 0.112c-0.006 0.040-0.019 0.080-0.030 0.089-0.023 0.017-0.029 0.083-0.053 0.531-0.009 0.17-0.008 0.34 0.001 0.378 0.029 0.116 0.071 0.078 0.054-0.049-0.009-0.067-0.004-0.119 0.013-0.119s0.029-0.041 0.029-0.091c0-0.050 0.016-0.101 0.036-0.113s0.027-0.044 0.017-0.070c-0.023-0.060 0.040-0.258 0.081-0.258 0.017 0 0.022-0.022 0.012-0.049-0.020-0.052 0.071-0.306 0.109-0.306 0.012 0 0.022-0.017 0.022-0.038 0-0.062 0.109-0.137 0.175-0.12 0.035 0.009 0.081-0.005 0.108-0.032 0.031-0.031 0.073-0.041 0.12-0.030s0.072 0.005 0.072-0.018c0-0.022 0.024-0.030 0.059-0.021 0.033 0.009 0.059 0.003 0.059-0.011s0.027-0.027 0.059-0.027 0.059-0.016 0.059-0.035c0-0.019 0.007-0.027 0.016-0.019 0.101 0.101 0.325-0.411 0.292-0.665-0.019-0.14-0.159-0.217-0.195-0.107zM13.059 17.274c0.028 0.033 0.071 0.059 0.096 0.058 0.059-0.001 0.154-0.073 0.129-0.098-0.011-0.011 0.010-0.019 0.047-0.019 0.042 0 0.058 0.012 0.045 0.034s-0.008 0.026 0.015 0.012c0.020-0.013 0.062 0.001 0.096 0.032 0.054 0.049 0.063 0.050 0.094 0.008 0.019-0.026 0.053-0.040 0.076-0.033 0.025 0.008 0.033 0.001 0.020-0.020s0.003-0.033 0.040-0.033c0.034 0 0.061 0.014 0.061 0.031s0.012 0.024 0.028 0.014c0.034-0.021 0.18 0.165 0.18 0.229 0 0.026 0.013 0.056 0.030 0.066s0.022 0.051 0.012 0.091c-0.011 0.044-0.005 0.072 0.015 0.072s0.033 0.076 0.033 0.209v0.209l-0.085-0.061c-0.063-0.045-0.104-0.118-0.154-0.276-0.038-0.118-0.088-0.245-0.111-0.282-0.041-0.066-0.153-0.093-0.153-0.037 0 0.016 0.015 0.030 0.033 0.030 0.020 0 0.028 0.035 0.020 0.087-0.007 0.048-0.002 0.081 0.011 0.072s0.026 0.009 0.028 0.039c0.007 0.087 0.011 0.424 0.006 0.424-0.079 0-0.246-0.261-0.247-0.387-0.001-0.079-0.118-0.294-0.161-0.294-0.027 0-0.040 0.034-0.038 0.104 0.002 0.057 0.012 0.104 0.023 0.104s0.019 0.107 0.016 0.237c-0.006 0.343-0.113 0.276-0.239-0.15-0.059-0.199-0.122-0.294-0.194-0.294-0.031 0-0.065-0.013-0.075-0.029-0.026-0.042 0.038-0.149 0.090-0.149 0.024 0 0.043-0.013 0.043-0.030 0-0.052 0.117-0.032 0.17 0.030zM16 17.247c0 0.018 0.017 0.027 0.037 0.020s0.053 0.009 0.071 0.034c0.031 0.042 0.040 0.041 0.094-0.008 0.034-0.031 0.076-0.045 0.096-0.032 0.023 0.014 0.028 0.010 0.015-0.012s0.003-0.034 0.045-0.034c0.036 0 0.057 0.009 0.047 0.019-0.027 0.027 0.071 0.097 0.136 0.098 0.029 0.001 0.061-0.020 0.070-0.045s0.037-0.039 0.060-0.030c0.023 0.009 0.034 0.003 0.024-0.013s0.009-0.029 0.043-0.029 0.061 0.013 0.061 0.030c0 0.016 0.017 0.030 0.037 0.030 0.047 0 0.119 0.112 0.095 0.149-0.010 0.016-0.041 0.028-0.071 0.028-0.073 0-0.146 0.089-0.17 0.205-0.011 0.053-0.038 0.104-0.061 0.113-0.024 0.009-0.034 0.038-0.024 0.070 0.022 0.070-0.105 0.297-0.161 0.287-0.048-0.009-0.049-0.394-0.002-0.559 0.048-0.168-0.041-0.201-0.107-0.040-0.030 0.072-0.062 0.132-0.070 0.132s-0.017 0.049-0.019 0.108c-0.001 0.064-0.022 0.122-0.052 0.144-0.027 0.020-0.049 0.064-0.049 0.099 0 0.050-0.074 0.124-0.125 0.124-0.018 0-0.003-0.428 0.019-0.526 0.012-0.053 0.034-0.096 0.049-0.096s0.027-0.013 0.027-0.030-0.031-0.030-0.069-0.030c-0.070 0-0.198 0.217-0.198 0.335 0 0.027-0.012 0.050-0.027 0.050s-0.021 0.024-0.013 0.054c0.009 0.034-0.022 0.089-0.084 0.15l-0.098 0.096-0.009-0.201c-0.005-0.118 0.004-0.206 0.021-0.211s0.022-0.049 0.013-0.097c-0.011-0.055-0.005-0.087 0.016-0.087 0.018 0 0.033-0.022 0.033-0.048 0-0.081 0.122-0.253 0.167-0.236 0.022 0.009 0.041 0.003 0.041-0.013s0.020-0.029 0.044-0.029 0.044 0.014 0.044 0.032z"></path>
</symbol>
<symbol id="icon-profile" viewBox="0 0 32 32">
<path d="M10.667 9.333c0-1.414 0.562-2.771 1.562-3.771s2.357-1.562 3.771-1.562 2.771 0.562 3.771 1.562c1 1 1.562 2.357 1.562 3.771s-0.562 2.771-1.562 3.771c-1 1-2.357 1.562-3.771 1.562s-2.771-0.562-3.771-1.562c-1-1-1.562-2.357-1.562-3.771zM10.667 17.333c-1.768 0-3.464 0.702-4.714 1.953s-1.953 2.946-1.953 4.714c0 1.061 0.421 2.078 1.172 2.828s1.768 1.172 2.828 1.172h16c1.061 0 2.078-0.421 2.828-1.172s1.172-1.768 1.172-2.828c0-1.768-0.702-3.464-1.953-4.714s-2.946-1.953-4.714-1.953h-10.667z"></path>
</symbol>
<symbol id="icon-search" viewBox="0 0 32 32">
<path d="M26.133 28l-8.4-8.4c-0.667 0.533-1.433 0.956-2.3 1.267s-1.789 0.467-2.767 0.467c-2.422 0-4.472-0.839-6.149-2.517s-2.516-3.728-2.517-6.149c-0.001-2.421 0.838-4.471 2.517-6.149s3.729-2.517 6.149-2.517c2.42 0 4.471 0.839 6.151 2.517s2.519 3.728 2.516 6.149c0 0.978-0.156 1.9-0.467 2.767s-0.733 1.633-1.267 2.3l8.4 8.4-1.867 1.867zM12.667 18.667c1.667 0 3.084-0.583 4.251-1.749s1.75-2.583 1.749-4.251c-0.001-1.668-0.584-3.084-1.749-4.249s-2.582-1.749-4.251-1.751c-1.668-0.002-3.085 0.582-4.249 1.751s-1.748 2.585-1.751 4.249c-0.003 1.664 0.581 3.081 1.751 4.251s2.586 1.753 4.249 1.749z"></path>
</symbol>
</defs>
</svg>
